<svg version="1.1" id="Layer_1" xmlns="http://www.w3.org/2000/svg" xmlns:xlink="http://www.w3.org/1999/xlink" x="0px" y="0px"
	 width="100%" viewBox="0 0 320 320" enable-background="new 0 0 320 320" xml:space="preserve">
<path fill="#47704C" opacity="1.000000" stroke="none" 
	d="
M173.000000,321.000000 
	C115.333344,321.000000 58.166687,321.000000 1.000023,321.000000 
	C1.000015,214.333359 1.000015,107.666725 1.000008,1.000066 
	C107.666618,1.000044 214.333237,1.000044 320.999878,1.000022 
	C320.999939,107.666595 320.999939,214.333191 320.999969,320.999878 
	C271.833344,321.000000 222.666672,321.000000 173.000000,321.000000 
M207.499115,267.005859 
	C215.200272,266.451935 223.033829,268.313934 230.575607,264.826843 
	C242.769180,259.188843 250.754486,250.106262 254.441528,236.946411 
	C271.315765,244.524017 287.001892,254.004288 304.957764,260.818024 
	C304.957764,249.283676 305.081940,238.987396 304.802856,228.702057 
	C304.767395,227.394836 302.857300,225.688980 301.414856,224.946396 
	C294.783356,221.532455 288.000885,218.412720 281.288239,215.155167 
	C246.102264,198.079865 210.918488,181.000000 175.747681,163.893555 
	C174.364899,163.220993 173.121506,162.261871 171.060532,160.961349 
	C178.341232,157.317596 184.672012,154.123459 191.024948,150.974045 
	C227.547943,132.868027 264.091492,114.803223 300.557373,96.582863 
	C302.374207,95.675072 304.734100,93.494522 304.799225,91.826874 
	C305.194397,81.709167 304.996185,71.568291 304.996185,59.787296 
	C287.534912,68.171776 271.111847,76.057747 254.566208,84.002563 
	C253.959396,82.290993 253.484421,80.889153 252.967514,79.502953 
	C247.995743,66.169731 233.001984,53.554283 216.389938,53.751839 
	C162.069504,54.397850 107.736473,53.951042 53.408672,54.081905 
	C49.368256,54.091637 45.102863,54.737114 41.333458,56.139256 
	C28.427410,60.940048 19.665604,70.519730 17.419424,83.762039 
	C15.606626,94.449371 17.013371,105.695534 17.200293,116.690239 
	C17.219631,117.827690 18.407722,119.413712 19.482679,119.987282 
	C25.576546,123.238846 31.789419,126.269127 37.983353,129.331100 
	C59.061939,139.751266 80.149536,150.153214 101.687561,160.786194 
	C99.237900,162.071426 97.216179,163.182571 95.151688,164.207565 
	C71.168663,176.114777 47.220634,188.093994 23.154430,199.830826 
	C18.650770,202.027222 16.619581,204.793259 16.988962,209.909744 
	C17.407871,215.712265 17.227951,221.572693 17.048128,227.399918 
	C16.840599,234.124924 17.838997,240.386597 20.776527,246.640854 
	C25.906584,257.563171 39.483624,267.005005 51.514324,267.005249 
	C103.176033,267.006165 154.837738,267.005768 207.499115,267.005859 
z"/>
<path fill="#020202" opacity="1.000000" stroke="none" 
	d="
M206.999283,267.005859 
	C154.837738,267.005768 103.176033,267.006165 51.514324,267.005249 
	C39.483624,267.005005 25.906584,257.563171 20.776527,246.640854 
	C17.838997,240.386597 16.840599,234.124924 17.048128,227.399918 
	C17.227951,221.572693 17.407871,215.712265 16.988962,209.909744 
	C16.619581,204.793259 18.650770,202.027222 23.154430,199.830826 
	C47.220634,188.093994 71.168663,176.114777 95.151688,164.207565 
	C97.216179,163.182571 99.237900,162.071426 101.687561,160.786194 
	C80.149536,150.153214 59.061939,139.751266 37.983353,129.331100 
	C31.789419,126.269127 25.576546,123.238846 19.482679,119.987282 
	C18.407722,119.413712 17.219631,117.827690 17.200293,116.690239 
	C17.013371,105.695534 15.606626,94.449371 17.419424,83.762039 
	C19.665604,70.519730 28.427410,60.940048 41.333458,56.139256 
	C45.102863,54.737114 49.368256,54.091637 53.408672,54.081905 
	C107.736473,53.951042 162.069504,54.397850 216.389938,53.751839 
	C233.001984,53.554283 247.995743,66.169731 252.967514,79.502953 
	C253.484421,80.889153 253.959396,82.290993 254.566208,84.002563 
	C271.111847,76.057747 287.534912,68.171776 304.996185,59.787296 
	C304.996185,71.568291 305.194397,81.709167 304.799225,91.826874 
	C304.734100,93.494522 302.374207,95.675072 300.557373,96.582863 
	C264.091492,114.803223 227.547943,132.868027 191.024948,150.974045 
	C184.672012,154.123459 178.341232,157.317596 171.060532,160.961349 
	C173.121506,162.261871 174.364899,163.220993 175.747681,163.893555 
	C210.918488,181.000000 246.102264,198.079865 281.288239,215.155167 
	C288.000885,218.412720 294.783356,221.532455 301.414856,224.946396 
	C302.857300,225.688980 304.767395,227.394836 304.802856,228.702057 
	C305.081940,238.987396 304.957764,249.283676 304.957764,260.818024 
	C287.001892,254.004288 271.315765,244.524017 254.441528,236.946411 
	C250.754486,250.106262 242.769180,259.188843 230.575607,264.826843 
	C223.033829,268.313934 215.200272,266.451935 206.999283,267.005859 
M97.539833,196.091339 
	C82.186226,203.708939 66.944725,211.567459 51.410233,218.796356 
	C46.789673,220.946503 45.882725,223.757843 46.450283,228.100266 
	C47.295330,234.565796 51.040691,237.548172 58.791565,237.550858 
	C110.102020,237.568680 161.412491,237.561264 212.722946,237.548859 
	C214.050064,237.548538 215.403885,237.537750 216.699478,237.291199 
	C221.570435,236.364395 224.205795,233.253494 224.844360,228.442871 
	C225.440948,223.948395 224.840332,220.732864 219.730301,218.290878 
	C193.008224,205.520905 166.531448,192.236191 140.020996,179.026917 
	C137.277039,177.659683 135.098724,177.385132 132.199310,178.886093 
	C120.969215,184.699615 109.570717,190.187866 97.539833,196.091339 
M176.500275,83.529037 
	C137.711426,83.529045 98.922577,83.522789 60.133736,83.545784 
	C57.979229,83.547058 55.743961,83.468872 53.686928,83.986542 
	C49.096691,85.141731 46.724632,88.469757 46.524666,93.066887 
	C46.398273,95.972580 45.248795,99.107498 49.332840,101.102112 
	C77.421738,114.820473 105.385712,128.794510 133.451248,142.561157 
	C134.831284,143.238083 137.087234,143.365204 138.425644,142.708923 
	C166.343765,129.019302 194.195877,115.194801 222.019775,101.314240 
	C223.171188,100.739845 224.526077,99.488243 224.764328,98.340111 
	C226.662842,89.190666 221.926453,83.567093 212.460175,83.537971 
	C200.806976,83.502121 189.153595,83.529144 176.500275,83.529037 
z"/>
<path fill="#FBFBFB" opacity="1.000000" stroke="none" 
	d="
M97.887383,195.944305 
	C109.570717,190.187866 120.969215,184.699615 132.199310,178.886093 
	C135.098724,177.385132 137.277039,177.659683 140.020996,179.026917 
	C166.531448,192.236191 193.008224,205.520905 219.730301,218.290878 
	C224.840332,220.732864 225.440948,223.948395 224.844360,228.442871 
	C224.205795,233.253494 221.570435,236.364395 216.699478,237.291199 
	C215.403885,237.537750 214.050064,237.548538 212.722946,237.548859 
	C161.412491,237.561264 110.102020,237.568680 58.791565,237.550858 
	C51.040691,237.548172 47.295330,234.565796 46.450283,228.100266 
	C45.882725,223.757843 46.789673,220.946503 51.410233,218.796356 
	C66.944725,211.567459 82.186226,203.708939 97.887383,195.944305 
z"/>
<path fill="#FEFEFE" opacity="1.000000" stroke="none" 
	d="
M177.000275,83.529022 
	C189.153595,83.529144 200.806976,83.502121 212.460175,83.537971 
	C221.926453,83.567093 226.662842,89.190666 224.764328,98.340111 
	C224.526077,99.488243 223.171188,100.739845 222.019775,101.314240 
	C194.195877,115.194801 166.343765,129.019302 138.425644,142.708923 
	C137.087234,143.365204 134.831284,143.238083 133.451248,142.561157 
	C105.385712,128.794510 77.421738,114.820473 49.332840,101.102112 
	C45.248795,99.107498 46.398273,95.972580 46.524666,93.066887 
	C46.724632,88.469757 49.096691,85.141731 53.686928,83.986542 
	C55.743961,83.468872 57.979229,83.547058 60.133736,83.545784 
	C98.922577,83.522789 137.711426,83.529045 177.000275,83.529022 
z"/>
</svg>