<svg version="1.1" id="Layer_1" xmlns="http://www.w3.org/2000/svg" xmlns:xlink="http://www.w3.org/1999/xlink" x="0px" y="0px"
	 width="100%" viewBox="0 0 2170 2049" enable-background="new 0 0 2170 2049" xml:space="preserve">
<path fill="#1E6E42" opacity="1.000000" stroke="none" 
	d="
M1238.000000,2052.000000 
	C1233.916626,2052.000000 1229.833374,2052.000000 1224.829956,2051.228516 
	C1222.185059,2049.637695 1220.535889,2048.368896 1218.724487,2048.063965 
	C1170.552979,2039.953003 1122.367310,2031.926636 1074.178833,2023.917114 
	C1023.371521,2015.472290 972.567688,2007.005981 921.744995,1998.654053 
	C891.289795,1993.649170 860.786743,1988.935181 830.333862,1983.916260 
	C812.784668,1981.023804 795.292603,1977.783691 777.829224,1973.707031 
	C777.922424,1967.718018 777.994995,1962.721924 777.995178,1957.725830 
	C778.000977,1776.182373 777.999207,1594.638794 778.001465,1413.095337 
	C778.001648,1398.594971 778.011475,1398.594971 793.234375,1397.409424 
	C797.403809,1397.547119 800.742798,1397.872803 804.767761,1398.631104 
	C812.660217,1399.333008 819.866760,1399.602417 827.792053,1399.611084 
	C831.031677,1399.617188 833.552551,1399.883911 836.712463,1400.578369 
	C842.883484,1400.766724 848.415344,1400.527100 853.947876,1399.545166 
	C837.227478,1365.668945 820.493896,1332.541016 803.806763,1299.390015 
	C802.332336,1296.460938 801.160461,1293.379517 799.886536,1289.511475 
	C798.979553,1283.831787 798.643250,1278.780640 796.936951,1274.244629 
	C794.720459,1268.352417 792.070374,1262.404175 788.447205,1257.303833 
	C779.664795,1244.940918 777.909119,1231.179810 777.923523,1216.560547 
	C778.054016,1084.292725 778.028625,952.024658 777.899963,819.756775 
	C777.894592,814.216736 776.423340,808.678101 775.719727,802.458008 
	C797.894775,758.763184 819.985474,715.749451 842.074890,672.735046 
	C843.283813,670.380798 844.805786,668.111816 845.507690,665.613708 
	C845.752380,664.742859 843.959656,663.299438 842.232910,662.095703 
	C837.624329,662.526672 833.880249,662.979492 829.256958,663.653381 
	C821.960205,663.956543 815.542725,664.038513 808.265747,664.093506 
	C803.646729,664.526917 799.887268,664.987366 795.240601,665.661682 
	C788.912415,665.980042 783.471252,666.084534 778.023193,665.239868 
	C778.007446,468.958984 777.998657,273.627289 778.722229,77.994766 
	C785.981689,76.484184 792.489075,75.154022 799.039001,74.083878 
	C846.257019,66.369255 893.496399,58.784264 940.704407,51.009037 
	C999.054504,41.398712 1057.381104,31.646065 1115.717285,21.951309 
	C1147.840210,16.612858 1179.964844,11.284284 1212.078491,5.890295 
	C1214.517212,5.480677 1217.712769,5.847660 1218.000000,2.000000 
	C1224.061157,2.000000 1230.122437,2.000000 1237.164551,2.935061 
	C1238.168457,65.815308 1238.156860,127.760567 1238.290894,189.705505 
	C1238.299927,193.888474 1239.405029,198.069077 1240.000122,203.172394 
	C1240.004395,227.445450 1240.008789,250.796936 1239.410767,274.738129 
	C1238.540039,284.556824 1238.040527,293.785858 1238.043579,303.014740 
	C1238.056641,341.767883 1238.219849,380.520935 1238.252563,420.253601 
	C1238.165283,482.925476 1238.153564,544.617737 1238.104370,607.227295 
	C1238.125854,629.929382 1238.184937,651.714294 1238.186279,674.465332 
	C1238.155518,737.108765 1238.182495,798.786133 1238.159912,861.370667 
	C1238.110474,885.528687 1238.110474,908.779480 1238.110474,933.146667 
	C1271.176392,933.146667 1303.428467,933.146606 1335.680420,933.146606 
	C1367.678101,933.146606 1399.675903,933.135071 1431.673584,933.149841 
	C1463.842773,933.164673 1496.013916,933.083130 1528.130371,933.201782 
	C1528.130371,996.164429 1528.130371,1057.639404 1528.130371,1120.031372 
	C1431.308716,1120.031372 1335.148071,1120.031372 1238.671875,1120.031372 
	C1238.671875,1144.697876 1238.671875,1168.438354 1238.671875,1193.201660 
	C1335.489136,1193.201660 1431.643677,1193.201660 1527.630493,1193.201660 
	C1529.853882,1207.611450 1529.199707,1372.433472 1526.751709,1380.288086 
	C1430.920288,1380.288086 1334.782227,1380.288086 1238.749512,1380.288086 
	C1236.907349,1398.951904 1237.586304,1444.707886 1239.968506,1452.404053 
	C1335.880859,1452.404053 1432.067993,1452.404053 1528.121704,1452.404053 
	C1528.121704,1514.776123 1528.121704,1576.266357 1528.121704,1638.707031 
	C1431.287476,1638.707031 1335.123291,1638.707031 1238.769775,1638.707031 
	C1238.425781,1640.874634 1238.050415,1642.139771 1238.049316,1643.405151 
	C1238.012817,1686.068726 1237.982544,1728.732422 1238.093384,1771.395630 
	C1238.098877,1773.507080 1239.378540,1775.614990 1240.050049,1778.679199 
	C1240.015625,1803.411255 1239.996094,1827.188843 1239.516602,1851.746460 
	C1238.775879,1856.819458 1238.258301,1861.111938 1238.249878,1865.405518 
	C1238.126343,1927.603638 1238.071411,1989.801758 1238.000000,2052.000000 
z"/>
<path fill="#207547" opacity="1.000000" stroke="none" 
	d="
M1.999999,1846.000000 
	C2.000000,1299.941284 2.000000,753.882507 2.863883,206.907043 
	C7.022603,205.576538 10.336164,205.275513 13.609409,204.731766 
	C51.005730,198.519714 88.391533,192.244339 125.788765,186.037735 
	C180.578308,176.944672 235.368912,167.857681 290.170654,158.838547 
	C322.656067,153.492188 355.163849,148.281326 387.996063,143.798462 
	C392.153992,150.520035 392.030609,157.165771 392.029144,163.869858 
	C391.992065,332.986877 391.999939,502.103912 392.000519,671.220947 
	C392.000519,674.217102 392.197662,677.227844 391.968689,680.206055 
	C391.607971,684.898315 393.513062,687.849854 397.124542,689.384399 
	C378.745605,690.671936 361.269684,691.707703 342.607330,692.813782 
	C344.444427,697.281677 345.726257,700.611328 347.166443,703.870972 
	C393.830383,809.485657 440.439209,915.124817 487.334045,1020.636963 
	C490.703094,1028.217285 490.897919,1034.136841 487.077332,1041.837158 
	C434.716339,1147.369751 382.751404,1253.098999 330.705811,1358.787964 
	C329.161194,1361.924683 327.798157,1365.150757 325.888458,1369.351318 
	C332.399811,1369.647217 337.349548,1369.762451 342.282166,1370.116699 
	C358.185730,1371.258911 374.082947,1372.489136 389.986572,1374.642334 
	C389.991547,1553.640015 389.992554,1731.680664 389.149780,1909.790283 
	C365.686981,1906.217773 343.054169,1902.659424 320.451691,1898.917847 
	C266.385315,1889.967651 212.335098,1880.919556 158.274704,1871.933228 
	C106.185539,1863.274292 54.091759,1854.643188 1.999999,1846.000000 
z"/>
<path fill="#207245" opacity="1.000000" stroke="none" 
	d="
M1240.013184,274.148407 
	C1240.008789,250.796936 1240.004395,227.445450 1240.934814,203.094040 
	C1242.535889,202.075256 1243.202271,202.039917 1243.868652,202.039902 
	C1526.189575,202.030563 1808.510376,202.017914 2090.831299,202.070053 
	C2095.128906,202.070847 2099.530273,202.419510 2103.707275,203.375198 
	C2132.824219,210.037323 2154.125488,226.510895 2166.680664,253.924942 
	C2167.773682,256.311859 2167.562988,260.344452 2172.000000,260.000000 
	C2172.000000,261.500000 2172.000000,263.000000 2171.618408,265.333069 
	C2171.491211,266.777405 2171.745605,267.388702 2172.000000,268.000000 
	C2172.000000,775.375122 2172.000000,1282.750244 2171.279541,1790.989014 
	C2169.345215,1793.763428 2167.879395,1795.560181 2166.956055,1797.602173 
	C2155.737061,1822.418701 2137.235840,1839.483032 2111.088379,1846.685791 
	C2098.769043,1850.079224 2085.489502,1851.265503 2072.642822,1851.277222 
	C1799.410156,1851.526611 1526.177246,1851.468262 1252.944336,1851.445190 
	C1248.621704,1851.444946 1244.299072,1851.133057 1239.976440,1850.966431 
	C1239.996094,1827.188843 1240.015625,1803.411255 1240.958496,1778.462158 
	C1246.213867,1777.258545 1250.545776,1777.198364 1254.877808,1777.198242 
	C1532.845337,1777.193848 1810.812744,1777.194214 2088.780273,1777.194214 
	C2093.037842,1777.194214 2097.295410,1777.194214 2102.050049,1777.194214 
	C2102.050049,1276.006958 2102.050049,775.883362 2102.050049,274.625153 
	C2097.363525,274.625153 2093.116943,274.625153 2088.870605,274.625153 
	C1810.236450,274.625153 1531.602417,274.627319 1252.968262,274.605377 
	C1248.649902,274.605011 1244.331543,274.307343 1240.013184,274.148407 
z"/>
<path fill="#000000" opacity="1.000000" stroke="none" 
	d="
M1239.516602,1851.746460 
	C1244.299072,1851.133057 1248.621704,1851.444946 1252.944336,1851.445190 
	C1526.177246,1851.468262 1799.410156,1851.526611 2072.642822,1851.277222 
	C2085.489502,1851.265503 2098.769043,1850.079224 2111.088379,1846.685791 
	C2137.235840,1839.483032 2155.737061,1822.418701 2166.956055,1797.602173 
	C2167.879395,1795.560181 2169.345215,1793.763428 2171.279541,1791.926270 
	C2172.000000,1878.603149 2172.000000,1965.206177 2172.000000,2052.000000 
	C1861.291626,2052.000000 1550.583130,2052.000000 1238.937256,2052.000000 
	C1238.071411,1989.801758 1238.126343,1927.603638 1238.249878,1865.405518 
	C1238.258301,1861.111938 1238.775879,1856.819458 1239.516602,1851.746460 
z"/>
<path fill="#000000" opacity="1.000000" stroke="none" 
	d="
M2172.000000,259.062683 
	C2167.562988,260.344452 2167.773682,256.311859 2166.680664,253.924942 
	C2154.125488,226.510895 2132.824219,210.037323 2103.707275,203.375198 
	C2099.530273,202.419510 2095.128906,202.070847 2090.831299,202.070053 
	C1808.510376,202.017914 1526.189575,202.030563 1243.868652,202.039902 
	C1243.202271,202.039917 1242.535889,202.075256 1240.934814,202.172455 
	C1239.405029,198.069077 1238.299927,193.888474 1238.290894,189.705505 
	C1238.156860,127.760567 1238.168457,65.815308 1238.072754,2.935061 
	C1549.104614,2.000000 1860.209351,2.000000 2172.000000,2.000000 
	C2172.000000,87.373894 2172.000000,172.749634 2172.000000,259.062683 
z"/>
<path fill="#000000" opacity="1.000000" stroke="none" 
	d="
M1.999999,1846.937256 
	C54.091759,1854.643188 106.185539,1863.274292 158.274704,1871.933228 
	C212.335098,1880.919556 266.385315,1889.967651 320.451691,1898.917847 
	C343.054169,1902.659424 365.686981,1906.217773 389.877777,1910.104858 
	C414.033356,1914.221313 436.601990,1918.183350 459.204132,1921.944214 
	C509.668121,1930.341309 560.151184,1938.623657 610.622131,1946.979492 
	C666.342224,1956.203979 722.057495,1965.458618 777.774841,1974.700073 
	C795.292603,1977.783691 812.784668,1981.023804 830.333862,1983.916260 
	C860.786743,1988.935181 891.289795,1993.649170 921.744995,1998.654053 
	C972.567688,2007.005981 1023.371521,2015.472290 1074.178833,2023.917114 
	C1122.367310,2031.926636 1170.552979,2039.953003 1218.724487,2048.063965 
	C1220.535889,2048.368896 1222.185059,2049.637695 1223.954956,2051.228516 
	C816.666626,2052.000000 409.333313,2052.000000 2.000000,2052.000000 
	C2.000000,1983.791382 2.000000,1915.833008 1.999999,1846.937256 
z"/>
<path fill="#000000" opacity="1.000000" stroke="none" 
	d="
M387.661560,143.009552 
	C355.163849,148.281326 322.656067,153.492188 290.170654,158.838547 
	C235.368912,167.857681 180.578308,176.944672 125.788765,186.037735 
	C88.391533,192.244339 51.005730,198.519714 13.609409,204.731766 
	C10.336164,205.275513 7.022603,205.576538 2.863883,205.995148 
	C2.000000,138.041916 2.000000,70.083824 2.000000,2.000000 
	C406.708435,2.000000 811.416931,2.000000 1217.062744,2.000000 
	C1217.712769,5.847660 1214.517212,5.480677 1212.078491,5.890295 
	C1179.964844,11.284284 1147.840210,16.612858 1115.717285,21.951309 
	C1057.381104,31.646065 999.054504,41.398712 940.704407,51.009037 
	C893.496399,58.784264 846.257019,66.369255 799.039001,74.083878 
	C792.489075,75.154022 785.981689,76.484184 777.895813,77.922287 
	C770.786133,78.875587 765.204468,79.419823 759.689636,80.357162 
	C736.888367,84.232658 714.118408,88.292671 691.316101,92.161606 
	C661.839905,97.162910 632.347534,102.069633 602.855225,106.975281 
	C560.584290,114.006477 518.300171,120.958389 476.034973,128.023682 
	C446.565643,132.949951 417.118561,138.009521 387.661560,143.009552 
z"/>
<path fill="#000000" opacity="1.000000" stroke="none" 
	d="
M2172.000000,267.500000 
	C2171.745605,267.388702 2171.491211,266.777405 2171.618408,266.083069 
	C2172.000000,266.000000 2172.000000,267.000000 2172.000000,267.500000 
z"/>
<path fill="#FDFEFE" opacity="1.000000" stroke="none" 
	d="
M1239.410767,274.738129 
	C1244.331543,274.307343 1248.649902,274.605011 1252.968262,274.605377 
	C1531.602417,274.627319 1810.236450,274.625153 2088.870605,274.625153 
	C2093.116943,274.625153 2097.363525,274.625153 2102.050049,274.625153 
	C2102.050049,775.883362 2102.050049,1276.006958 2102.050049,1777.194214 
	C2097.295410,1777.194214 2093.037842,1777.194214 2088.780273,1777.194214 
	C1810.812744,1777.194214 1532.845337,1777.193848 1254.877808,1777.198242 
	C1250.545776,1777.198364 1246.213867,1777.258545 1240.973389,1777.507568 
	C1239.378540,1775.614990 1238.098877,1773.507080 1238.093384,1771.395630 
	C1237.982544,1728.732422 1238.012817,1686.068726 1238.049316,1643.405151 
	C1238.050415,1642.139771 1238.425781,1640.874634 1238.769775,1638.707031 
	C1335.123291,1638.707031 1431.287476,1638.707031 1528.121704,1638.707031 
	C1528.121704,1576.266357 1528.121704,1514.776123 1528.121704,1452.404053 
	C1432.067993,1452.404053 1335.880859,1452.404053 1239.968506,1452.404053 
	C1237.586304,1444.707886 1236.907349,1398.951904 1238.749512,1380.288086 
	C1334.782227,1380.288086 1430.920288,1380.288086 1526.751709,1380.288086 
	C1529.199707,1372.433472 1529.853882,1207.611450 1527.630493,1193.201660 
	C1431.643677,1193.201660 1335.489136,1193.201660 1238.671875,1193.201660 
	C1238.671875,1168.438354 1238.671875,1144.697876 1238.671875,1120.031372 
	C1335.148071,1120.031372 1431.308716,1120.031372 1528.130371,1120.031372 
	C1528.130371,1057.639404 1528.130371,996.164429 1528.130371,933.201782 
	C1496.013916,933.083130 1463.842773,933.164673 1431.673584,933.149841 
	C1399.675903,933.135071 1367.678101,933.146606 1335.680420,933.146606 
	C1303.428467,933.146606 1271.176392,933.146667 1238.110474,933.146667 
	C1238.110474,908.779480 1238.110474,885.528687 1239.081055,861.310181 
	C1336.138428,860.342468 1432.225220,860.342468 1528.228394,860.342468 
	C1528.228394,797.474121 1528.228394,736.034668 1528.228394,673.698242 
	C1524.071411,673.698242 1520.481201,673.698242 1516.890991,673.698242 
	C1449.974609,673.698242 1383.058350,673.716370 1316.141968,673.689087 
	C1290.176025,673.678528 1264.210083,673.565491 1238.244141,673.499146 
	C1238.184937,651.714294 1238.125854,629.929382 1239.028809,607.148315 
	C1336.090576,606.152100 1432.190430,606.152100 1528.260986,606.152100 
	C1528.260986,543.302429 1528.260986,481.844543 1528.260986,419.412170 
	C1523.830688,419.412170 1519.911133,419.413849 1515.991455,419.411896 
	C1423.437012,419.366180 1330.882568,419.320068 1238.328125,419.274048 
	C1238.219849,380.520935 1238.056641,341.767883 1238.043579,303.014740 
	C1238.040527,293.785858 1238.540039,284.556824 1239.410767,274.738129 
M1948.228149,1251.000000 
	C1948.228149,1232.464600 1948.228149,1213.929321 1948.228149,1195.216797 
	C1832.319946,1195.216797 1717.624390,1195.216797 1603.011719,1195.216797 
	C1601.026978,1212.566162 1601.825928,1374.211304 1603.860352,1381.131592 
	C1718.294434,1381.131592 1832.742065,1381.131592 1948.228149,1381.131592 
	C1948.228149,1338.076782 1948.228149,1295.538452 1948.228149,1251.000000 
M1810.999634,861.402039 
	C1856.520630,861.402039 1902.041504,861.402039 1947.408813,861.402039 
	C1949.304688,844.025452 1948.573120,681.923096 1946.715210,674.859070 
	C1923.557495,672.782776 1609.804321,673.754639 1602.808105,675.877808 
	C1602.808105,737.410767 1602.808105,798.894897 1602.808105,861.401978 
	C1671.933594,861.401978 1740.466553,861.401978 1810.999634,861.402039 
M1938.918457,933.125305 
	C1827.040894,933.125305 1715.163330,933.125305 1603.480469,933.125305 
	C1601.425537,944.849915 1601.831177,1112.315918 1603.744629,1119.424927 
	C1718.243042,1119.424927 1832.747437,1119.424927 1947.531860,1119.424927 
	C1947.531860,1057.150269 1947.531860,995.392639 1947.531860,933.515625 
	C1944.867676,933.360535 1942.883667,933.244995 1938.918457,933.125305 
M1727.000000,606.057556 
	C1800.511475,606.057556 1874.022827,606.057556 1947.714111,606.057556 
	C1947.714111,543.350830 1947.714111,481.864288 1947.714111,420.075928 
	C1832.488647,420.075928 1717.770264,420.075928 1602.761108,420.075928 
	C1602.761108,482.206268 1602.761108,543.669861 1602.761108,606.057556 
	C1643.864990,606.057556 1684.432495,606.057556 1727.000000,606.057556 
M1889.000000,1451.906494 
	C1794.057861,1452.030762 1699.115845,1452.154663 1604.173828,1452.300903 
	C1603.907959,1452.301270 1603.620361,1452.600220 1603.383057,1452.806030 
	C1603.133545,1453.022827 1602.932373,1453.295288 1602.929199,1453.298828 
	C1602.929199,1515.008545 1602.929199,1576.471313 1602.929199,1638.069824 
	C1718.143921,1638.069824 1832.646362,1638.069824 1947.525879,1638.069824 
	C1947.525879,1575.917969 1947.525879,1514.212036 1947.525879,1451.906494 
	C1928.224731,1451.906494 1909.612305,1451.906494 1889.000000,1451.906494 
z"/>
<path fill="#1F7144" opacity="1.000000" stroke="none" 
	d="
M387.996063,143.798462 
	C417.118561,138.009521 446.565643,132.949951 476.034973,128.023682 
	C518.300171,120.958389 560.584290,114.006477 602.855225,106.975281 
	C632.347534,102.069633 661.839905,97.162910 691.316101,92.161606 
	C714.118408,88.292671 736.888367,84.232658 759.689636,80.357162 
	C765.204468,79.419823 770.786133,78.875587 777.163452,78.223076 
	C777.998657,273.627289 778.007446,468.958984 777.249512,665.563660 
	C748.280151,668.602722 720.077576,670.368835 691.819031,672.138489 
	C690.206726,675.704529 688.803955,678.692383 687.494446,681.720459 
	C662.917236,738.553284 638.189636,795.321838 613.854858,852.258301 
	C602.625183,878.532349 589.321777,904.013123 582.272644,931.958191 
	C582.179749,932.326660 581.328369,932.503784 581.879517,932.208557 
	C574.640198,913.765747 567.234985,895.272644 560.107239,876.673279 
	C536.547852,815.196533 513.128601,753.666016 489.474762,692.225708 
	C488.273376,689.105042 485.383148,686.634644 482.428345,683.865356 
	C474.427002,684.390015 467.276520,684.910706 459.245789,685.651855 
	C455.347687,685.870544 452.329865,685.868713 448.448364,685.869751 
	C439.751282,686.427917 431.917877,686.983215 423.200043,687.749268 
	C414.219574,688.350952 406.123535,688.741821 398.027527,689.132629 
	C393.513062,687.849854 391.607971,684.898315 391.968689,680.206055 
	C392.197662,677.227844 392.000519,674.217102 392.000519,671.220947 
	C391.999939,502.103912 391.992065,332.986877 392.029144,163.869858 
	C392.030609,157.165771 392.153992,150.520035 387.996063,143.798462 
z"/>
<path fill="#1F7144" opacity="1.000000" stroke="none" 
	d="
M777.829224,1973.707031 
	C722.057495,1965.458618 666.342224,1956.203979 610.622131,1946.979492 
	C560.151184,1938.623657 509.668121,1930.341309 459.204132,1921.944214 
	C436.601990,1918.183350 414.033356,1914.221313 390.721558,1910.035889 
	C389.992554,1731.680664 389.991547,1553.640015 390.910095,1374.471802 
	C417.691406,1374.764771 443.553162,1376.185303 469.339050,1377.601685 
	C471.034058,1373.888062 472.469696,1370.889771 473.784973,1367.839478 
	C500.546570,1305.778198 527.338623,1243.730103 554.018555,1181.633667 
	C562.207092,1162.575317 570.081177,1143.381836 577.754333,1125.073120 
	C579.581787,1130.387817 581.490540,1137.109497 584.156921,1143.515991 
	C617.416443,1223.428955 650.848083,1303.270508 683.998169,1383.228760 
	C686.406555,1389.037476 689.678467,1391.230103 695.756470,1391.451660 
	C712.405396,1392.058472 729.043213,1393.061768 745.670898,1394.133423 
	C761.258240,1395.138184 776.826965,1396.431274 792.403931,1397.597534 
	C778.011475,1398.594971 778.001648,1398.594971 778.001465,1413.095337 
	C777.999207,1594.638794 778.000977,1776.182373 777.995178,1957.725830 
	C777.994995,1962.721924 777.922424,1967.718018 777.829224,1973.707031 
z"/>
<path fill="#FEFEFE" opacity="1.000000" stroke="none" 
	d="
M793.234375,1397.409424 
	C776.826965,1396.431274 761.258240,1395.138184 745.670898,1394.133423 
	C729.043213,1393.061768 712.405396,1392.058472 695.756470,1391.451660 
	C689.678467,1391.230103 686.406555,1389.037476 683.998169,1383.228760 
	C650.848083,1303.270508 617.416443,1223.428955 584.156921,1143.515991 
	C581.490540,1137.109497 579.581787,1130.387817 577.754333,1125.073120 
	C570.081177,1143.381836 562.207092,1162.575317 554.018555,1181.633667 
	C527.338623,1243.730103 500.546570,1305.778198 473.784973,1367.839478 
	C472.469696,1370.889771 471.034058,1373.888062 469.339050,1377.601685 
	C443.553162,1376.185303 417.691406,1374.764771 390.906128,1373.514771 
	C374.082947,1372.489136 358.185730,1371.258911 342.282166,1370.116699 
	C337.349548,1369.762451 332.399811,1369.647217 325.888458,1369.351318 
	C327.798157,1365.150757 329.161194,1361.924683 330.705811,1358.787964 
	C382.751404,1253.098999 434.716339,1147.369751 487.077332,1041.837158 
	C490.897919,1034.136841 490.703094,1028.217285 487.334045,1020.636963 
	C440.439209,915.124817 393.830383,809.485657 347.166443,703.870972 
	C345.726257,700.611328 344.444427,697.281677 342.607330,692.813782 
	C361.269684,691.707703 378.745605,690.671936 397.124542,689.384399 
	C406.123535,688.741821 414.219574,688.350952 424.095215,687.895569 
	C433.687256,687.176331 441.499634,686.521667 449.312042,685.866943 
	C452.329865,685.868713 455.347687,685.870544 460.125427,685.795166 
	C469.016663,685.099121 476.147949,684.480286 483.279236,683.861450 
	C485.383148,686.634644 488.273376,689.105042 489.474762,692.225708 
	C513.128601,753.666016 536.547852,815.196533 560.107239,876.673279 
	C567.234985,895.272644 574.640198,913.765747 581.879517,932.208557 
	C581.328369,932.503784 582.179749,932.326660 582.272644,931.958191 
	C589.321777,904.013123 602.625183,878.532349 613.854858,852.258301 
	C638.189636,795.321838 662.917236,738.553284 687.494446,681.720459 
	C688.803955,678.692383 690.206726,675.704529 691.819031,672.138489 
	C720.077576,670.368835 748.280151,668.602722 777.256470,666.512817 
	C783.471252,666.084534 788.912415,665.980042 796.049561,665.818115 
	C801.538818,665.213989 805.331970,664.667236 809.125183,664.120483 
	C815.542725,664.038513 821.960205,663.956543 830.057739,663.799927 
	C835.524292,663.189392 839.310852,662.653503 843.097412,662.117554 
	C843.959656,663.299438 845.752380,664.742859 845.507690,665.613708 
	C844.805786,668.111816 843.283813,670.380798 842.074890,672.735046 
	C819.985474,715.749451 797.894775,758.763184 775.166443,802.928284 
	C739.672791,875.116333 704.898926,946.193726 669.825500,1017.122986 
	C666.570923,1023.704712 666.381592,1028.726196 669.830444,1035.480835 
	C711.710938,1117.505371 753.207275,1199.725952 794.838806,1281.877808 
	C796.321228,1284.803101 798.169983,1287.542725 799.848022,1290.368896 
	C801.160461,1293.379517 802.332336,1296.460938 803.806763,1299.390015 
	C820.493896,1332.541016 837.227478,1365.668945 853.057983,1399.546631 
	C846.802673,1400.243652 841.438049,1400.197021 836.073364,1400.150513 
	C833.552551,1399.883911 831.031677,1399.617188 826.999878,1399.170166 
	C818.353210,1398.726074 811.217529,1398.462280 804.081787,1398.198486 
	C800.742798,1397.872803 797.403809,1397.547119 793.234375,1397.409424 
z"/>
<path fill="#1F7144" opacity="1.000000" stroke="none" 
	d="
M1238.186279,674.465271 
	C1264.210083,673.565491 1290.176025,673.678528 1316.141968,673.689087 
	C1383.058350,673.716370 1449.974609,673.698242 1516.890991,673.698242 
	C1520.481201,673.698242 1524.071411,673.698242 1528.228394,673.698242 
	C1528.228394,736.034668 1528.228394,797.474121 1528.228394,860.342468 
	C1432.225220,860.342468 1336.138428,860.342468 1239.130493,860.402954 
	C1238.182495,798.786133 1238.155518,737.108765 1238.186279,674.465271 
z"/>
<path fill="#1F7144" opacity="1.000000" stroke="none" 
	d="
M1238.252563,420.253601 
	C1330.882568,419.320068 1423.437012,419.366180 1515.991455,419.411896 
	C1519.911133,419.413849 1523.830688,419.412170 1528.260986,419.412170 
	C1528.260986,481.844543 1528.260986,543.302429 1528.260986,606.152100 
	C1432.190430,606.152100 1336.090576,606.152100 1239.066406,606.231079 
	C1238.153564,544.617737 1238.165283,482.925476 1238.252563,420.253601 
z"/>
<path fill="#1F7144" opacity="1.000000" stroke="none" 
	d="
M799.886536,1289.511475 
	C798.169983,1287.542725 796.321228,1284.803101 794.838806,1281.877808 
	C753.207275,1199.725952 711.710938,1117.505371 669.830444,1035.480835 
	C666.381592,1028.726196 666.570923,1023.704712 669.825500,1017.122986 
	C704.898926,946.193726 739.672791,875.116333 775.081787,803.609131 
	C776.423340,808.678101 777.894592,814.216736 777.899963,819.756775 
	C778.028625,952.024658 778.054016,1084.292725 777.923523,1216.560547 
	C777.909119,1231.179810 779.664795,1244.940918 788.447205,1257.303833 
	C792.070374,1262.404175 794.720459,1268.352417 796.936951,1274.244629 
	C798.643250,1278.780640 798.979553,1283.831787 799.886536,1289.511475 
z"/>
<path fill="#1F7144" opacity="1.000000" stroke="none" 
	d="
M804.767761,1398.631104 
	C811.217529,1398.462280 818.353210,1398.726074 826.281128,1399.430786 
	C819.866760,1399.602417 812.660217,1399.333008 804.767761,1398.631104 
z"/>
<path fill="#1F7144" opacity="1.000000" stroke="none" 
	d="
M836.712463,1400.578369 
	C841.438049,1400.197021 846.802673,1400.243652 853.057312,1400.288818 
	C848.415344,1400.527100 842.883484,1400.766724 836.712463,1400.578369 
z"/>
<path fill="#1F7144" opacity="1.000000" stroke="none" 
	d="
M842.232910,662.095703 
	C839.310852,662.653503 835.524292,663.189392 830.936951,663.578735 
	C833.880249,662.979492 837.624329,662.526672 842.232910,662.095703 
z"/>
<path fill="#1F7144" opacity="1.000000" stroke="none" 
	d="
M808.265747,664.093506 
	C805.331970,664.667236 801.538818,665.213989 796.936646,665.604248 
	C799.887268,664.987366 803.646729,664.526917 808.265747,664.093506 
z"/>
<path fill="#217245" opacity="1.000000" stroke="none" 
	d="
M1948.228149,1252.000000 
	C1948.228149,1295.538452 1948.228149,1338.076782 1948.228149,1381.131592 
	C1832.742065,1381.131592 1718.294434,1381.131592 1603.860352,1381.131592 
	C1601.825928,1374.211304 1601.026978,1212.566162 1603.011719,1195.216797 
	C1717.624390,1195.216797 1832.319946,1195.216797 1948.228149,1195.216797 
	C1948.228149,1213.929321 1948.228149,1232.464600 1948.228149,1252.000000 
z"/>
<path fill="#217245" opacity="1.000000" stroke="none" 
	d="
M1809.999512,861.401978 
	C1740.466553,861.401978 1671.933594,861.401978 1602.808105,861.401978 
	C1602.808105,798.894897 1602.808105,737.410767 1602.808105,675.877808 
	C1609.804321,673.754639 1923.557495,672.782776 1946.715210,674.859070 
	C1948.573120,681.923096 1949.304688,844.025452 1947.408813,861.402039 
	C1902.041504,861.402039 1856.520630,861.402039 1809.999512,861.401978 
z"/>
<path fill="#207145" opacity="1.000000" stroke="none" 
	d="
M1939.908936,933.127441 
	C1942.883667,933.244995 1944.867676,933.360535 1947.531860,933.515625 
	C1947.531860,995.392639 1947.531860,1057.150269 1947.531860,1119.424927 
	C1832.747437,1119.424927 1718.243042,1119.424927 1603.744629,1119.424927 
	C1601.831177,1112.315918 1601.425537,944.849915 1603.480469,933.125305 
	C1715.163330,933.125305 1827.040894,933.125305 1939.908936,933.127441 
z"/>
<path fill="#1F7144" opacity="1.000000" stroke="none" 
	d="
M1726.000000,606.057556 
	C1684.432495,606.057556 1643.864990,606.057556 1602.761108,606.057556 
	C1602.761108,543.669861 1602.761108,482.206268 1602.761108,420.075928 
	C1717.770264,420.075928 1832.488647,420.075928 1947.714111,420.075928 
	C1947.714111,481.864288 1947.714111,543.350830 1947.714111,606.057556 
	C1874.022827,606.057556 1800.511475,606.057556 1726.000000,606.057556 
z"/>
<path fill="#207144" opacity="1.000000" stroke="none" 
	d="
M1890.000000,1451.906494 
	C1909.612305,1451.906494 1928.224731,1451.906494 1947.525879,1451.906494 
	C1947.525879,1514.212036 1947.525879,1575.917969 1947.525879,1638.069824 
	C1832.646362,1638.069824 1718.143921,1638.069824 1602.929199,1638.069824 
	C1602.929199,1576.471313 1602.929199,1515.008545 1602.929199,1453.298828 
	C1602.932373,1453.295288 1603.133545,1453.022827 1603.383057,1452.806030 
	C1603.620361,1452.600220 1603.907959,1452.301270 1604.173828,1452.300903 
	C1699.115845,1452.154663 1794.057861,1452.030762 1890.000000,1451.906494 
z"/>
<path fill="#207547" opacity="1.000000" stroke="none" 
	d="
M448.448364,685.869751 
	C441.499634,686.521667 433.687256,687.176331 424.979675,687.684814 
	C431.917877,686.983215 439.751282,686.427917 448.448364,685.869751 
z"/>
<path fill="#207547" opacity="1.000000" stroke="none" 
	d="
M482.428345,683.865356 
	C476.147949,684.480286 469.016663,685.099121 461.005707,685.574707 
	C467.276520,684.910706 474.427002,684.390015 482.428345,683.865356 
z"/>
</svg>