<svg version="1.1" id="Layer_1" xmlns="http://www.w3.org/2000/svg" xmlns:xlink="http://www.w3.org/1999/xlink" x="0px" y="0px"
	 width="100%" viewBox="0 0 225 225" enable-background="new 0 0 225 225" xml:space="preserve">
<path fill="#FFFFFF" opacity="1.000000" stroke="none" 
	d="
M104.000000,226.000000 
	C69.333336,226.000000 35.166672,226.000000 1.000005,226.000000 
	C1.000003,151.000000 1.000003,76.000015 1.000002,1.000015 
	C75.999992,1.000010 150.999985,1.000010 225.999969,1.000005 
	C225.999985,75.999985 225.999985,150.999969 226.000000,225.999969 
	C185.500000,226.000000 145.000000,226.000000 104.000000,226.000000 
M87.995079,143.995911 
	C87.995079,143.995911 87.988319,143.930161 87.227287,143.882858 
	C84.176056,144.978577 81.124817,146.074280 77.193832,147.077545 
	C67.795685,148.577820 57.812897,147.259338 47.552097,152.908112 
	C51.450142,155.588974 54.010036,157.980789 57.035103,159.328415 
	C77.916412,168.630661 99.813774,170.638260 122.274437,167.675903 
	C135.553711,165.924515 148.814682,164.011673 162.047241,161.937607 
	C169.553497,160.761108 177.011597,159.228149 184.427444,157.569672 
	C185.757965,157.272125 187.663925,155.607239 187.698486,154.522507 
	C187.735794,153.351654 186.006851,151.983032 184.822769,150.962448 
	C183.974304,150.231140 182.797241,149.649429 181.693756,149.481812 
	C171.745987,147.970718 161.782074,146.565979 151.111969,145.038422 
	C150.398361,144.991333 149.684738,144.944260 148.446747,144.484268 
	C146.745865,143.510437 144.951309,142.668640 143.360245,141.540009 
	C136.389023,136.594894 128.641739,133.823868 120.003494,132.153305 
	C118.721565,118.146011 112.146873,106.592697 104.240112,95.865753 
	C110.875183,97.221550 117.510254,98.577354 124.627083,100.031586 
	C124.766243,99.810333 125.305367,98.953201 125.772316,98.210808 
	C127.487534,98.937103 128.916397,99.542137 130.897736,100.381111 
	C130.897736,98.056755 130.897736,96.518173 130.897736,94.795952 
	C133.470734,95.212379 135.684982,95.570740 138.133179,95.966965 
	C134.980072,90.442558 128.320724,86.057999 120.225151,83.314415 
	C119.970467,82.346916 119.715782,81.379417 119.448685,80.364746 
	C120.844711,79.654083 122.341248,78.892258 124.219643,77.936043 
	C122.660400,76.452850 121.553490,75.399933 121.033745,74.905540 
	C123.051254,73.337837 124.917282,71.887848 126.783318,70.437851 
	C126.242699,69.881554 125.702080,69.325256 125.161453,68.768951 
	C124.625099,69.075584 124.036903,69.713516 123.560204,69.638924 
	C116.898079,68.596413 110.984756,70.744255 105.195099,73.662666 
	C104.666656,73.929047 103.717606,73.361000 102.419029,72.853394 
	C101.594337,70.174057 100.769653,67.494720 99.622650,63.768196 
	C95.393906,68.746269 93.987686,73.534645 93.179649,79.097351 
	C83.359413,74.040359 70.250656,76.799118 65.865578,81.490471 
	C68.295517,82.015442 70.563324,82.505386 72.934265,83.017616 
	C72.127029,84.899376 71.558723,86.224174 70.857071,87.859810 
	C72.960388,87.996094 74.700684,88.108856 76.440979,88.221619 
	C76.254646,88.579269 76.068321,88.936920 75.881989,89.294563 
	C76.730385,89.858719 77.622337,90.368088 78.416901,90.999931 
	C79.593391,91.935463 80.700783,92.957909 81.184944,94.127075 
	C72.200134,98.884575 70.188011,107.553963 68.925728,116.799011 
	C70.671631,115.164581 72.417534,113.530151 74.214455,111.847961 
	C75.329849,113.273674 76.279678,114.487755 77.469116,116.008102 
	C78.685181,114.292580 79.648384,112.933784 81.225548,110.708855 
	C81.718460,112.110962 82.026001,112.985748 82.263275,113.660690 
	C87.129883,108.024445 91.450096,103.020988 96.449448,97.994942 
	C96.840141,97.783028 97.230835,97.571106 98.047722,97.887215 
	C100.365189,103.160072 103.338730,108.254845 104.830818,113.751747 
	C106.617188,120.332764 107.138260,127.257248 107.450531,134.120697 
	C101.587769,137.130173 95.725006,140.139633 89.312996,143.147827 
	C88.852196,143.425659 88.391403,143.703491 87.995079,143.995911 
M149.511169,123.541168 
	C152.321655,124.340157 155.132156,125.139145 158.620407,126.285080 
	C161.722321,126.827568 164.824234,127.370064 168.046051,127.933525 
	C167.996246,117.886024 162.564453,108.453949 154.436432,104.017647 
	C154.014191,103.901825 153.591934,103.786003 152.707733,103.291527 
	C152.129425,103.195663 151.551102,103.099800 150.430969,102.480179 
	C140.861710,100.199120 132.339188,103.062492 123.329132,107.965630 
	C126.241089,109.955879 128.645630,111.599327 131.364975,113.793533 
	C133.881287,115.261917 136.397583,116.730301 139.285385,118.750412 
	C140.472473,120.278870 141.659576,121.807335 142.623749,123.048775 
	C144.509445,123.048775 146.761017,123.048775 149.511169,123.541168 
M152.473328,60.620892 
	C146.258591,61.757843 142.902527,65.407516 143.244293,70.657295 
	C143.590454,75.974586 146.999420,79.037666 153.709274,79.601807 
	C159.892960,77.959961 163.026627,74.417130 162.708237,69.507881 
	C162.454803,65.600143 158.616302,60.122581 152.473328,60.620892 
z"/>
<path fill="#FEEA3C" opacity="1.000000" stroke="none" 
	d="
M120.167885,132.989304 
	C128.641739,133.823868 136.389023,136.594894 143.360245,141.540009 
	C144.951309,142.668640 146.745865,143.510437 148.833862,145.009064 
	C152.710510,149.620270 156.200043,153.706680 159.780426,158.099930 
	C159.870163,158.620087 159.869064,158.833405 159.496109,159.216309 
	C157.162140,159.590393 155.200333,159.969315 153.237854,159.972794 
	C129.928696,160.014069 106.619392,159.981262 83.310295,160.035904 
	C81.559052,160.040009 79.809013,160.563492 77.736145,160.886536 
	C77.228638,159.668839 77.043411,158.410110 77.166679,156.984344 
	C80.979561,152.521591 84.483940,148.225876 87.988319,143.930161 
	C87.988319,143.930161 87.995079,143.995911 88.242996,143.971115 
	C88.948029,143.680588 89.405136,143.414841 89.862244,143.149109 
	C95.725006,140.139633 101.587769,137.130173 107.943405,134.459869 
	C108.032570,139.861374 110.778053,140.864471 115.415756,139.947327 
	C120.410927,139.622879 119.903572,136.064651 120.167885,132.989304 
M136.867844,146.823578 
	C132.211487,144.937637 127.794342,145.576736 123.563118,148.816772 
	C129.177185,148.816772 134.791245,148.816772 140.405304,148.816772 
	C140.417191,148.351761 140.429077,147.886749 140.440979,147.421738 
	C139.502518,147.259872 138.564056,147.098022 136.867844,146.823578 
z"/>
<path fill="#A8DBFC" opacity="1.000000" stroke="none" 
	d="
M159.867950,159.046722 
	C159.869064,158.833405 159.870163,158.620087 160.166794,157.945038 
	C163.326080,157.275375 166.189850,157.067444 169.053604,156.859528 
	C169.213821,156.431152 169.374039,156.002792 169.534241,155.574432 
	C168.333954,154.497223 167.283340,153.146622 165.906082,152.392685 
	C161.274399,149.857254 156.526382,147.534286 151.822891,145.130020 
	C161.782074,146.565979 171.745987,147.970718 181.693756,149.481812 
	C182.797241,149.649429 183.974304,150.231140 184.822769,150.962448 
	C186.006851,151.983032 187.735794,153.351654 187.698486,154.522507 
	C187.663925,155.607239 185.757965,157.272125 184.427444,157.569672 
	C177.011597,159.228149 169.553497,160.761108 162.047241,161.937607 
	C148.814682,164.011673 135.553711,165.924515 122.274437,167.675903 
	C99.813774,170.638260 77.916412,168.630661 57.035103,159.328415 
	C54.010036,157.980789 51.450142,155.588974 47.552097,152.908112 
	C57.812897,147.259338 67.795685,148.577820 77.427673,147.382141 
	C73.724823,150.144302 69.788139,152.601852 65.851456,155.059418 
	C66.023911,155.756744 66.196373,156.454071 66.368828,157.151398 
	C69.865273,157.151398 73.361725,157.151398 76.858177,157.151398 
	C77.043411,158.410110 77.228638,159.668839 78.197266,160.947083 
	C104.645088,160.974030 130.309631,161.009781 155.973587,160.906174 
	C157.274185,160.900925 158.569946,159.694092 159.867950,159.046722 
z"/>
<path fill="#4FB053" opacity="1.000000" stroke="none" 
	d="
M97.621536,97.359177 
	C97.230835,97.571106 96.840141,97.783028 96.162827,97.557831 
	C95.333229,96.405457 94.907692,95.543518 94.227867,94.999184 
	C90.356293,91.899162 86.016861,93.773392 81.837585,93.943359 
	C80.700783,92.957909 79.593391,91.935463 78.416901,90.999931 
	C77.622337,90.368088 76.730385,89.858719 75.881989,89.294563 
	C76.068321,88.936920 76.254646,88.579269 76.440979,88.221619 
	C74.700684,88.108856 72.960388,87.996094 70.857071,87.859810 
	C71.558723,86.224174 72.127029,84.899376 72.934265,83.017616 
	C70.563324,82.505386 68.295517,82.015442 65.865578,81.490471 
	C70.250656,76.799118 83.359413,74.040359 93.599380,79.407150 
	C95.676399,84.793579 97.333687,89.870224 98.994034,95.274582 
	C98.997849,96.039291 98.998611,96.476273 98.659203,97.037987 
	C98.086525,97.228203 97.854027,97.293694 97.621536,97.359177 
z"/>
<path fill="#4DAF51" opacity="1.000000" stroke="none" 
	d="
M98.999374,96.913254 
	C98.998611,96.476273 98.997849,96.039291 99.139999,94.963776 
	C100.509888,87.276978 101.736877,80.228714 102.963867,73.180443 
	C103.717606,73.361000 104.666656,73.929047 105.195099,73.662666 
	C110.984756,70.744255 116.898079,68.596413 123.560204,69.638924 
	C124.036903,69.713516 124.625099,69.075584 125.161453,68.768951 
	C125.702080,69.325256 126.242699,69.881554 126.783318,70.437851 
	C124.917282,71.887848 123.051254,73.337837 121.033745,74.905540 
	C121.553490,75.399933 122.660400,76.452850 124.219643,77.936043 
	C122.341248,78.892258 120.844711,79.654083 119.448685,80.364746 
	C119.715782,81.379417 119.970467,82.346916 119.780426,83.644943 
	C114.784103,86.047836 110.045471,87.805382 105.771286,90.344673 
	C104.017097,91.386841 103.264717,94.115250 102.016312,96.280525 
	C101.975990,96.484444 101.868889,96.885986 101.511047,96.916374 
	C100.435257,96.935593 99.717316,96.924423 98.999374,96.913254 
z"/>
<path fill="#4DAF51" opacity="1.000000" stroke="none" 
	d="
M81.511261,94.035217 
	C86.016861,93.773392 90.356293,91.899162 94.227867,94.999184 
	C94.907692,95.543518 95.333229,96.405457 95.823257,97.569122 
	C91.450096,103.020988 87.129883,108.024445 82.263275,113.660690 
	C82.026001,112.985748 81.718460,112.110962 81.225548,110.708855 
	C79.648384,112.933784 78.685181,114.292580 77.469116,116.008102 
	C76.279678,114.487755 75.329849,113.273674 74.214455,111.847961 
	C72.417534,113.530151 70.671631,115.164581 68.925728,116.799011 
	C70.188011,107.553963 72.200134,98.884575 81.511261,94.035217 
z"/>
<path fill="#2E9B2E" opacity="1.000000" stroke="none" 
	d="
M102.056625,96.076607 
	C103.264717,94.115250 104.017097,91.386841 105.771286,90.344673 
	C110.045471,87.805382 114.784103,86.047836 119.742889,83.946274 
	C128.320724,86.057999 134.980072,90.442558 138.133179,95.966965 
	C135.684982,95.570740 133.470734,95.212379 130.897736,94.795952 
	C130.897736,96.518173 130.897736,98.056755 130.897736,100.381111 
	C128.916397,99.542137 127.487534,98.937103 125.772316,98.210808 
	C125.305367,98.953201 124.766243,99.810333 124.627083,100.031586 
	C117.510254,98.577354 110.875183,97.221550 103.557877,96.024551 
	C102.616982,96.037781 102.343971,96.002197 102.056625,96.076607 
z"/>
<path fill="#3D3E3D" opacity="1.000000" stroke="none" 
	d="
M98.659203,97.037987 
	C99.717316,96.924423 100.435257,96.935593 101.646606,97.248367 
	C110.869232,110.324364 113.071579,125.085274 115.035454,139.918762 
	C110.778053,140.864471 108.032570,139.861374 108.321808,134.416016 
	C107.138260,127.257248 106.617188,120.332764 104.830818,113.751747 
	C103.338730,108.254845 100.365189,103.160072 97.834625,97.623199 
	C97.854027,97.293694 98.086525,97.228203 98.659203,97.037987 
z"/>
<path fill="#070706" opacity="1.000000" stroke="none" 
	d="
M115.415756,139.947327 
	C113.071579,125.085274 110.869232,110.324364 102.004456,97.217987 
	C101.868889,96.885986 101.975990,96.484444 102.016312,96.280525 
	C102.343971,96.002197 102.616982,96.037781 103.081299,96.141136 
	C112.146873,106.592697 118.721565,118.146011 120.085693,132.571304 
	C119.903572,136.064651 120.410927,139.622879 115.415756,139.947327 
z"/>
<path fill="#FF6806" opacity="1.000000" stroke="none" 
	d="
M154.980133,104.373970 
	C162.564453,108.453949 167.996246,117.886024 168.046051,127.933525 
	C164.824234,127.370064 161.722321,126.827568 158.288162,125.657639 
	C156.963989,118.144791 155.972061,111.259377 154.980133,104.373970 
z"/>
<path fill="#2C9A2C" opacity="1.000000" stroke="none" 
	d="
M102.691452,73.016922 
	C101.736877,80.228714 100.509888,87.276978 99.136940,94.636055 
	C97.333687,89.870224 95.676399,84.793579 93.965668,79.285324 
	C93.987686,73.534645 95.393906,68.746269 99.622650,63.768196 
	C100.769653,67.494720 101.594337,70.174057 102.691452,73.016922 
z"/>
<path fill="#FEEA3C" opacity="1.000000" stroke="none" 
	d="
M153.017776,79.439095 
	C146.999420,79.037666 143.590454,75.974586 143.244293,70.657295 
	C142.902527,65.407516 146.258591,61.757843 152.739792,61.233047 
	C153.010101,67.709831 153.013947,73.574463 153.017776,79.439095 
z"/>
<path fill="#CEBE31" opacity="1.000000" stroke="none" 
	d="
M153.363525,79.520447 
	C153.013947,73.574463 153.010101,67.709831 153.010056,61.369289 
	C158.616302,60.122581 162.454803,65.600143 162.708237,69.507881 
	C163.026627,74.417130 159.892960,77.959961 153.363525,79.520447 
z"/>
<path fill="#FF6806" opacity="1.000000" stroke="none" 
	d="
M131.050171,113.242767 
	C128.645630,111.599327 126.241089,109.955879 123.329132,107.965630 
	C132.339188,103.062492 140.861710,100.199120 150.327530,102.755310 
	C143.832794,106.434555 137.441483,109.838669 131.050171,113.242767 
z"/>
<path fill="#FFE53D" opacity="1.000000" stroke="none" 
	d="
M131.207581,113.518158 
	C137.441483,109.838669 143.832794,106.434555 150.598450,103.017181 
	C151.551102,103.099800 152.129425,103.195663 152.713318,103.653183 
	C152.481537,104.303932 152.244156,104.593010 151.697357,105.024918 
	C147.229950,109.511398 143.071930,113.855049 138.913895,118.198700 
	C136.397583,116.730301 133.881287,115.261917 131.207581,113.518158 
z"/>
<path fill="#D0B930" opacity="1.000000" stroke="none" 
	d="
M152.006760,104.882088 
	C152.244156,104.593010 152.481537,104.303932 152.944305,103.842514 
	C153.591934,103.786003 154.014191,103.901825 154.708282,104.195808 
	C155.972061,111.259377 156.963989,118.144791 157.949280,125.484161 
	C155.132156,125.139145 152.321655,124.340157 149.318604,122.903709 
	C150.086288,116.471527 151.046524,110.676811 152.006760,104.882088 
z"/>
<path fill="#FF6806" opacity="1.000000" stroke="none" 
	d="
M151.697357,105.024918 
	C151.046524,110.676811 150.086288,116.471527 149.069305,122.657516 
	C146.761017,123.048775 144.509445,123.048775 142.623749,123.048775 
	C141.659576,121.807335 140.472473,120.278870 139.099640,118.474556 
	C143.071930,113.855049 147.229950,109.511398 151.697357,105.024918 
z"/>
<path fill="#CEBE31" opacity="1.000000" stroke="none" 
	d="
M77.166679,156.984344 
	C73.361725,157.151398 69.865273,157.151398 66.368828,157.151398 
	C66.196373,156.454071 66.023911,155.756744 65.851456,155.059418 
	C69.788139,152.601852 73.724823,150.144302 77.867538,147.428360 
	C81.124817,146.074280 84.176056,144.978577 87.607803,143.906509 
	C84.483940,148.225876 80.979561,152.521591 77.166679,156.984344 
z"/>
<path fill="#CEBE31" opacity="1.000000" stroke="none" 
	d="
M151.467438,145.084229 
	C156.526382,147.534286 161.274399,149.857254 165.906082,152.392685 
	C167.283340,153.146622 168.333954,154.497223 169.534241,155.574432 
	C169.374039,156.002792 169.213821,156.431152 169.053604,156.859528 
	C166.189850,157.067444 163.326080,157.275375 160.075943,157.638214 
	C156.200043,153.706680 152.710510,149.620270 149.096054,145.215515 
	C149.684738,144.944260 150.398361,144.991333 151.467438,145.084229 
z"/>
<path fill="#CEBE31" opacity="1.000000" stroke="none" 
	d="
M89.587616,143.148468 
	C89.405136,143.414841 88.948029,143.680588 88.210762,143.963837 
	C88.391403,143.703491 88.852196,143.425659 89.587616,143.148468 
z"/>
<path fill="#FFEC1D" opacity="1.000000" stroke="none" 
	d="
M159.496109,159.216309 
	C158.569946,159.694092 157.274185,160.900925 155.973587,160.906174 
	C130.309631,161.009781 104.645088,160.974030 78.519547,160.906082 
	C79.809013,160.563492 81.559052,160.040009 83.310295,160.035904 
	C106.619392,159.981262 129.928696,160.014069 153.237854,159.972794 
	C155.200333,159.969315 157.162140,159.590393 159.496109,159.216309 
z"/>
<path fill="#CEBE31" opacity="1.000000" stroke="none" 
	d="
M137.246719,146.879883 
	C138.564056,147.098022 139.502518,147.259872 140.440979,147.421738 
	C140.429077,147.886749 140.417191,148.351761 140.405304,148.816772 
	C134.791245,148.816772 129.177185,148.816772 123.563118,148.816772 
	C127.794342,145.576736 132.211487,144.937637 137.246719,146.879883 
z"/>
</svg>