<svg version="1.1" id="Layer_1" xmlns="http://www.w3.org/2000/svg" xmlns:xlink="http://www.w3.org/1999/xlink" x="0px" y="0px"
	 width="100%" viewBox="0 0 2203 2050" enable-background="new 0 0 2203 2050" xml:space="preserve">
<path fill="#D35230" opacity="1.000000" stroke="none" 
	d="
M2206.000000,1028.000000 
	C2206.000000,1060.041748 2206.000000,1092.083618 2205.205078,1124.710449 
	C2203.718018,1127.424072 2202.687744,1129.505859 2202.384521,1131.688721 
	C2197.999756,1163.251099 2195.062988,1195.082520 2189.153809,1226.353149 
	C2169.813965,1328.700928 2135.387451,1425.887451 2085.875000,1517.594116 
	C2043.288696,1596.472290 1991.202271,1668.586304 1929.610107,1733.697510 
	C1890.679565,1774.852417 1848.706299,1812.739136 1803.426514,1846.867798 
	C1716.644897,1912.277954 1621.980591,1962.949219 1519.105835,1998.025269 
	C1447.449707,2022.457397 1373.993164,2038.978394 1298.566040,2046.370605 
	C1293.948486,2046.823120 1289.314331,2047.338867 1284.777222,2048.263672 
	C1283.102051,2048.605225 1280.629272,2050.007080 1284.000000,2052.000000 
	C1281.222168,2052.000000 1278.444458,2052.000000 1275.193848,2051.214355 
	C1273.001953,2049.546387 1271.377686,2048.828369 1272.000000,2052.000000 
	C1212.624878,2052.000000 1153.249756,2052.000000 1093.518555,2051.339355 
	C1091.260010,2050.145508 1089.160034,2048.848145 1087.505737,2049.275391 
	C1085.489014,2049.796387 1086.020996,2051.362061 1088.000000,2052.000000 
	C1085.866577,2052.000000 1083.733276,2052.000000 1081.663574,2051.443848 
	C1079.561157,2049.819336 1077.488159,2048.110840 1075.214844,2047.780884 
	C1046.961548,2043.678711 1018.542969,2040.558716 990.432495,2035.661377 
	C931.991760,2025.479980 875.000732,2009.708252 819.371582,1989.017578 
	C768.114685,1969.953247 718.750000,1946.865479 671.226379,1919.848755 
	C623.971252,1892.984497 578.740295,1863.034302 536.966003,1828.220093 
	C510.924957,1806.517822 485.895813,1783.592651 460.649811,1760.951660 
	C455.020386,1755.902954 450.385681,1749.744995 446.280579,1744.090210 
	C660.775513,1744.067017 874.283203,1744.244385 1087.789917,1743.864624 
	C1127.840210,1743.793335 1156.574219,1724.186890 1174.008789,1687.391846 
	C1174.903687,1685.962158 1175.509766,1685.015015 1176.835571,1684.005127 
	C1195.323608,1677.097778 1208.290649,1664.714233 1218.535522,1648.970337 
	C1230.883545,1629.994507 1233.776733,1608.575439 1233.837280,1586.838623 
	C1234.139526,1478.181274 1233.964111,1369.522705 1233.979492,1260.864502 
	C1233.990601,1183.204224 1234.037720,1105.543823 1235.000000,1027.815186 
	C1237.595947,1027.727783 1239.260742,1027.692017 1240.925659,1027.692017 
	C1559.291138,1027.689331 1877.656494,1027.688110 2196.021973,1027.701660 
	C2199.347900,1027.701782 2202.674072,1027.896240 2206.000000,1028.000000 
z"/>
<path fill="#FF8F6B" opacity="1.000000" stroke="none" 
	d="
M2206.000000,1027.062744 
	C2202.674072,1027.896240 2199.347900,1027.701782 2196.021973,1027.701660 
	C1877.656494,1027.688110 1559.291138,1027.689331 1240.925659,1027.692017 
	C1239.260742,1027.692017 1237.595947,1027.727783 1235.065674,1027.658447 
	C1234.200317,1027.570068 1234.279175,1027.238159 1234.196533,1026.374512 
	C1234.061646,1020.848389 1233.964111,1016.185852 1233.963867,1011.523376 
	C1233.956055,854.626404 1234.005615,697.729309 1233.875977,540.832458 
	C1233.864136,526.562683 1232.931274,512.279785 1232.029541,498.028046 
	C1230.863647,479.601654 1224.937134,462.757751 1212.931274,448.596497 
	C1204.343018,438.466461 1195.265869,428.613586 1182.105225,423.438904 
	C1182.007446,422.979309 1181.757812,422.073242 1181.807983,421.132599 
	C1181.895874,415.202057 1181.965820,410.212158 1181.966431,405.222260 
	C1181.981934,270.814850 1181.990356,136.407425 1182.000000,2.000000 
	C1214.708496,2.000000 1247.416870,2.000000 1279.849121,2.188233 
	C1279.722290,7.988235 1283.725342,7.804953 1287.737183,8.037787 
	C1299.263062,8.706717 1310.865845,8.924428 1322.278442,10.487411 
	C1343.647705,13.413983 1365.026123,16.543383 1386.181396,20.703732 
	C1425.964355,28.527306 1465.227783,38.547199 1503.806030,51.117924 
	C1557.963867,68.765274 1610.307617,90.682198 1660.801514,117.100327 
	C1695.038940,135.013107 1728.229858,154.668900 1760.162842,176.351517 
	C1796.502075,201.026047 1831.146118,227.949020 1864.038086,257.131073 
	C1899.187622,288.316040 1932.178345,321.600677 1962.690186,357.309967 
	C2020.461670,424.922577 2068.784668,498.705139 2107.307617,578.925781 
	C2139.089600,645.109375 2163.490234,713.870483 2180.059814,785.359680 
	C2185.336182,808.124451 2189.719482,831.126953 2193.602539,854.173706 
	C2196.493408,871.329224 2197.948730,888.728027 2199.984375,906.025330 
	C2200.788818,912.859680 2201.304932,919.731384 2202.286865,926.537781 
	C2202.444336,927.627258 2203.372803,931.104065 2206.000000,928.000000 
	C2206.000000,930.777771 2206.000000,933.555603 2205.589844,936.522522 
	C2204.783447,937.947266 2204.386963,939.182922 2203.990723,940.418518 
	C2204.660400,940.279053 2205.330322,940.139526 2206.000000,940.000000 
	C2206.000000,968.708435 2206.000000,997.416931 2206.000000,1027.062744 
z"/>
<path fill="#000000" opacity="1.000000" stroke="none" 
	d="
M2.000000,538.000000 
	C2.000000,359.428497 2.000000,180.856964 2.000000,2.000000 
	C361.379913,2.000000 720.759888,2.000000 1082.137085,2.338916 
	C1082.138428,8.116173 1077.498291,7.933300 1072.927246,8.009438 
	C1062.390869,8.184941 1051.952026,8.639556 1041.419556,10.149659 
	C987.428650,17.890633 934.118896,28.652435 881.856384,44.334595 
	C813.201599,64.935524 747.371460,92.301582 684.557617,126.902603 
	C651.008545,145.383118 618.556274,165.597687 587.266479,187.670944 
	C547.270813,215.885788 509.294556,246.638947 474.118286,280.657928 
	C453.321411,300.770630 432.989227,321.473816 413.810730,343.118866 
	C394.890625,364.472412 377.687744,387.347534 359.160522,409.926086 
	C346.188354,428.120728 333.787140,445.944336 320.488647,463.710388 
	C244.726669,463.657471 169.861633,463.779755 94.997414,463.587555 
	C75.227959,463.536804 57.676792,469.773773 41.944904,481.043701 
	C24.084625,493.838348 12.169950,511.130615 6.221505,532.394592 
	C5.546317,534.808167 5.970106,538.062500 2.000000,538.000000 
z"/>
<path fill="#000000" opacity="1.000000" stroke="none" 
	d="
M445.292969,1744.097900 
	C450.385681,1749.744995 455.020386,1755.902954 460.649811,1760.951660 
	C485.895813,1783.592651 510.924957,1806.517822 536.966003,1828.220093 
	C578.740295,1863.034302 623.971252,1892.984497 671.226379,1919.848755 
	C718.750000,1946.865479 768.114685,1969.953247 819.371582,1989.017578 
	C875.000732,2009.708252 931.991760,2025.479980 990.432495,2035.661377 
	C1018.542969,2040.558716 1046.961548,2043.678711 1075.214844,2047.780884 
	C1077.488159,2048.110840 1079.561157,2049.819336 1080.863525,2051.443848 
	C720.861572,2052.000000 361.723083,2052.000000 2.000000,2052.000000 
	C2.000000,1873.958618 2.000000,1695.916626 2.689692,1516.806641 
	C4.781062,1518.545288 6.182740,1521.351929 7.628962,1524.920898 
	C14.033112,1546.988159 27.000092,1563.327881 45.280991,1575.653442 
	C62.137268,1587.018311 81.084824,1591.485962 101.060295,1591.592896 
	C144.038788,1591.822632 187.019424,1591.667725 229.999146,1591.629761 
	C234.653946,1591.625610 239.308502,1591.354736 244.888916,1591.378906 
	C252.078171,1591.595825 258.341766,1591.632812 264.605255,1591.688232 
	C284.375641,1591.863159 304.145935,1592.045044 324.003418,1592.916748 
	C332.574432,1606.501587 340.971222,1619.452759 349.599243,1632.248047 
	C351.952423,1635.737915 355.001160,1638.758667 357.955872,1642.647705 
	C371.843719,1660.266968 385.506378,1677.233032 399.529053,1694.799194 
	C415.023682,1711.632202 430.158295,1727.865112 445.292969,1744.097900 
z"/>
<path fill="#ED6C47" opacity="1.000000" stroke="none" 
	d="
M359.731476,409.555084 
	C377.687744,387.347534 394.890625,364.472412 413.810730,343.118866 
	C432.989227,321.473816 453.321411,300.770630 474.118286,280.657928 
	C509.294556,246.638947 547.270813,215.885788 587.266479,187.670944 
	C618.556274,165.597687 651.008545,145.383118 684.557617,126.902603 
	C747.371460,92.301582 813.201599,64.935524 881.856384,44.334595 
	C934.118896,28.652435 987.428650,17.890633 1041.419556,10.149659 
	C1051.952026,8.639556 1062.390869,8.184941 1072.927246,8.009438 
	C1077.498291,7.933300 1082.138428,8.116173 1083.067139,2.338916 
	C1114.708496,2.000000 1147.416870,2.000000 1181.062744,2.000000 
	C1181.990356,136.407425 1181.981934,270.814850 1181.966431,405.222260 
	C1181.965820,410.212158 1181.895874,415.202057 1181.109253,420.962921 
	C1164.213745,414.851471 1147.456421,411.882324 1129.818604,411.893768 
	C878.919678,412.056763 628.020569,412.005005 377.121490,412.003479 
	C373.789581,412.003448 370.419983,412.283813 367.138000,411.873352 
	C364.612000,411.557465 362.196259,410.360352 359.731476,409.555084 
z"/>
<path fill="#000000" opacity="1.000000" stroke="none" 
	d="
M2206.000000,927.062683 
	C2203.372803,931.104065 2202.444336,927.627258 2202.286865,926.537781 
	C2201.304932,919.731384 2200.788818,912.859680 2199.984375,906.025330 
	C2197.948730,888.728027 2196.493408,871.329224 2193.602539,854.173706 
	C2189.719482,831.126953 2185.336182,808.124451 2180.059814,785.359680 
	C2163.490234,713.870483 2139.089600,645.109375 2107.307617,578.925781 
	C2068.784668,498.705139 2020.461670,424.922577 1962.690186,357.309967 
	C1932.178345,321.600677 1899.187622,288.316040 1864.038086,257.131073 
	C1831.146118,227.949020 1796.502075,201.026047 1760.162842,176.351517 
	C1728.229858,154.668900 1695.038940,135.013107 1660.801514,117.100327 
	C1610.307617,90.682198 1557.963867,68.765274 1503.806030,51.117924 
	C1465.227783,38.547199 1425.964355,28.527306 1386.181396,20.703732 
	C1365.026123,16.543383 1343.647705,13.413983 1322.278442,10.487411 
	C1310.865845,8.924428 1299.263062,8.706717 1287.737183,8.037787 
	C1283.725342,7.804953 1279.722290,7.988235 1280.786499,2.188233 
	C1589.854370,2.000000 1897.708618,2.000000 2206.000000,2.000000 
	C2206.000000,310.041656 2206.000000,618.083496 2206.000000,927.062683 
z"/>
<path fill="#000000" opacity="1.000000" stroke="none" 
	d="
M1284.937256,2052.000000 
	C1280.629272,2050.007080 1283.102051,2048.605225 1284.777222,2048.263672 
	C1289.314331,2047.338867 1293.948486,2046.823120 1298.566040,2046.370605 
	C1373.993164,2038.978394 1447.449707,2022.457397 1519.105835,1998.025269 
	C1621.980591,1962.949219 1716.644897,1912.277954 1803.426514,1846.867798 
	C1848.706299,1812.739136 1890.679565,1774.852417 1929.610107,1733.697510 
	C1991.202271,1668.586304 2043.288696,1596.472290 2085.875000,1517.594116 
	C2135.387451,1425.887451 2169.813965,1328.700928 2189.153809,1226.353149 
	C2195.062988,1195.082520 2197.999756,1163.251099 2202.384521,1131.688721 
	C2202.687744,1129.505859 2203.718018,1127.424072 2205.205078,1125.647705 
	C2206.000000,1434.520508 2206.000000,1743.041016 2206.000000,2052.000000 
	C1899.291626,2052.000000 1592.583130,2052.000000 1284.937256,2052.000000 
z"/>
<path fill="#C84623" opacity="1.000000" stroke="none" 
	d="
M2.000000,1054.000000 
	C2.000000,968.624878 2.000000,883.249756 2.742252,796.893799 
	C6.812035,794.500427 10.310420,793.390442 13.438247,791.624207 
	C28.799730,782.949707 44.072006,774.116821 59.358334,765.309570 
	C83.296646,751.517517 107.233345,737.722534 131.147583,723.888794 
	C153.909943,710.721191 176.619919,697.463013 199.394409,684.316467 
	C223.897827,670.171936 248.470230,656.146973 272.974548,642.004028 
	C300.362305,626.196899 327.690887,610.287354 355.075897,594.475525 
	C379.865570,580.162048 404.704285,565.933594 429.507050,551.642700 
	C452.868896,538.182068 476.226196,524.713501 499.559052,511.202667 
	C520.010925,499.360107 540.440125,487.478149 560.826477,475.523499 
	C562.238281,474.695618 563.210083,473.117462 566.193359,470.000000 
	C559.162720,470.000000 554.589905,470.172363 550.034058,469.967041 
	C537.426636,469.398926 524.812683,468.844086 512.236084,467.846161 
	C510.071259,467.674377 508.077057,465.353119 506.940826,464.007874 
	C663.919495,464.002136 819.961426,464.013275 975.990417,464.780029 
	C976.608337,471.775299 971.980896,474.323975 967.701843,476.831329 
	C953.351257,485.240326 938.895020,493.468903 924.476074,501.761078 
	C899.965759,515.856628 875.431885,529.911255 850.947571,544.051697 
	C828.190857,557.194519 805.511536,570.471313 782.751160,583.607788 
	C758.262817,597.741638 733.703613,611.752808 709.205200,625.869263 
	C685.571289,639.487488 661.988953,653.195129 638.359192,666.820557 
	C615.881836,679.781555 593.390808,692.719055 570.856567,705.580566 
	C567.609619,707.433777 565.981201,709.955505 565.084106,713.815796 
	C486.139709,714.003357 408.116333,714.003357 329.441925,714.003357 
	C329.441925,719.116455 329.441620,722.744751 329.441986,726.373108 
	C329.446350,771.273987 329.462250,816.174805 329.433807,861.075684 
	C329.431488,864.719177 329.125854,868.362610 328.245636,872.028076 
	C322.028687,874.251282 316.324951,876.058289 311.076324,878.752014 
	C304.289703,882.235168 297.903900,886.491333 291.280853,890.302185 
	C246.063568,916.319458 200.783112,942.227295 155.613647,968.327271 
	C111.020866,994.093994 66.600624,1020.160095 21.925816,1045.782959 
	C15.761481,1049.318481 10.030430,1054.677856 2.000000,1054.000000 
z"/>
<path fill="#C64220" opacity="1.000000" stroke="none" 
	d="
M2.000000,1054.937256 
	C10.030430,1054.677856 15.761481,1049.318481 21.925816,1045.782959 
	C66.600624,1020.160095 111.020866,994.093994 155.613647,968.327271 
	C200.783112,942.227295 246.063568,916.319458 291.280853,890.302185 
	C297.903900,886.491333 304.289703,882.235168 311.076324,878.752014 
	C316.324951,876.058289 322.028687,874.251282 328.435913,872.947876 
	C329.379944,977.252625 329.420929,1080.659546 329.435638,1184.066528 
	C329.435913,1186.046265 329.125916,1188.025879 328.247192,1190.026978 
	C322.945587,1191.854736 318.171112,1193.301025 313.815033,1195.555664 
	C307.914246,1198.609863 302.375977,1202.356201 296.609314,1205.679321 
	C272.100525,1219.802734 247.541473,1233.839233 223.045639,1247.985107 
	C200.278320,1261.132935 177.595123,1274.426270 154.825134,1287.569458 
	C130.326248,1301.710449 105.738785,1315.698120 81.246895,1329.851074 
	C58.771503,1342.838745 36.410152,1356.024292 13.900967,1368.952515 
	C10.191417,1371.083252 5.979682,1372.339600 2.000005,1374.000000 
	C2.000000,1267.958252 2.000000,1161.916382 2.000000,1054.937256 
z"/>
<path fill="#C94A26" opacity="1.000000" stroke="none" 
	d="
M506.004028,464.024750 
	C508.077057,465.353119 510.071259,467.674377 512.236084,467.846161 
	C524.812683,468.844086 537.426636,469.398926 550.034058,469.967041 
	C554.589905,470.172363 559.162720,470.000000 566.193359,470.000000 
	C563.210083,473.117462 562.238281,474.695618 560.826477,475.523499 
	C540.440125,487.478149 520.010925,499.360107 499.559052,511.202667 
	C476.226196,524.713501 452.868896,538.182068 429.507050,551.642700 
	C404.704285,565.933594 379.865570,580.162048 355.075897,594.475525 
	C327.690887,610.287354 300.362305,626.196899 272.974548,642.004028 
	C248.470230,656.146973 223.897827,670.171936 199.394409,684.316467 
	C176.619919,697.463013 153.909943,710.721191 131.147583,723.888794 
	C107.233345,737.722534 83.296646,751.517517 59.358334,765.309570 
	C44.072006,774.116821 28.799730,782.949707 13.438247,791.624207 
	C10.310420,793.390442 6.812035,794.500427 2.742252,795.956482 
	C2.000000,710.624878 2.000000,625.249756 2.000000,538.937317 
	C5.970106,538.062500 5.546317,534.808167 6.221505,532.394592 
	C12.169950,511.130615 24.084625,493.838348 41.944904,481.043701 
	C57.676792,469.773773 75.227959,463.536804 94.997414,463.587555 
	C169.861633,463.779755 244.726669,463.657471 321.464417,463.751099 
	C384.226288,463.907806 445.115173,463.966278 506.004028,464.024750 
z"/>
<path fill="#C33E1D" opacity="1.000000" stroke="none" 
	d="
M2.000005,1374.937256 
	C5.979682,1372.339600 10.191417,1371.083252 13.900967,1368.952515 
	C36.410152,1356.024292 58.771503,1342.838745 81.246895,1329.851074 
	C105.738785,1315.698120 130.326248,1301.710449 154.825134,1287.569458 
	C177.595123,1274.426270 200.278320,1261.132935 223.045639,1247.985107 
	C247.541473,1233.839233 272.100525,1219.802734 296.609314,1205.679321 
	C302.375977,1202.356201 307.914246,1198.609863 313.815033,1195.555664 
	C318.171112,1193.301025 322.945587,1191.854736 328.440002,1190.946289 
	C329.430756,1240.596313 329.515137,1289.348267 329.178162,1338.595947 
	C325.536804,1341.877075 322.657562,1345.247803 319.041595,1347.353394 
	C294.878265,1361.424072 270.499207,1375.123901 246.302124,1389.137329 
	C211.159637,1409.489990 176.152786,1430.076538 141.012268,1450.432495 
	C102.415840,1472.790527 63.786423,1495.093018 25.027393,1517.166870 
	C19.634909,1520.238037 13.419085,1521.863647 7.584405,1524.158447 
	C6.182740,1521.351929 4.781062,1518.545288 2.689692,1515.869385 
	C2.000000,1469.291504 2.000000,1422.583130 2.000005,1374.937256 
z"/>
<path fill="#000000" opacity="1.000000" stroke="none" 
	d="
M1088.666626,2052.000000 
	C1086.020996,2051.362061 1085.489014,2049.796387 1087.505737,2049.275391 
	C1089.160034,2048.848145 1091.260010,2050.145508 1092.581177,2051.339355 
	C1091.111084,2052.000000 1090.222168,2052.000000 1088.666626,2052.000000 
z"/>
<path fill="#C16D51" opacity="1.000000" stroke="none" 
	d="
M2206.000000,939.500000 
	C2205.330322,940.139526 2204.660400,940.279053 2203.990723,940.418518 
	C2204.386963,939.182922 2204.783447,937.947266 2205.589844,937.355835 
	C2206.000000,938.000000 2206.000000,939.000000 2206.000000,939.500000 
z"/>
<path fill="#000000" opacity="1.000000" stroke="none" 
	d="
M1272.500000,2052.000000 
	C1271.377686,2048.828369 1273.001953,2049.546387 1274.360474,2051.214355 
	C1274.000000,2052.000000 1273.000000,2052.000000 1272.500000,2052.000000 
z"/>
<path fill="#983B22" opacity="1.000000" stroke="none" 
	d="
M399.169006,1694.199097 
	C385.506378,1677.233032 371.843719,1660.266968 358.914124,1642.652100 
	C584.059570,1642.005859 808.471985,1642.011597 1032.884399,1641.998291 
	C1041.873413,1641.997803 1050.862305,1641.815430 1060.799194,1641.800049 
	C1070.690430,1641.921143 1079.648193,1642.307861 1088.574341,1641.935425 
	C1118.603516,1640.682251 1143.682739,1629.407104 1162.198975,1605.006714 
	C1168.873169,1596.211548 1173.726562,1586.537231 1177.559937,1576.244507 
	C1178.424194,1573.924316 1180.173584,1571.933960 1181.622803,1570.736572 
	C1181.818115,1592.842163 1181.634399,1614.008911 1182.080078,1635.162231 
	C1182.430786,1651.802124 1181.209351,1668.143188 1176.115723,1684.067749 
	C1175.509766,1685.015015 1174.903687,1685.962158 1173.224609,1687.438599 
	C1148.166138,1695.328735 1123.467041,1693.992920 1098.875122,1693.992554 
	C871.302917,1693.988647 643.730713,1693.988770 416.158508,1693.999023 
	C410.495331,1693.999268 404.832184,1694.129517 399.169006,1694.199097 
z"/>
<path fill="#A94226" opacity="1.000000" stroke="none" 
	d="
M399.529053,1694.799194 
	C404.832184,1694.129517 410.495331,1693.999268 416.158508,1693.999023 
	C643.730713,1693.988770 871.302917,1693.988647 1098.875122,1693.992554 
	C1123.467041,1693.992920 1148.166138,1695.328735 1172.935791,1687.921143 
	C1156.574219,1724.186890 1127.840210,1743.793335 1087.789917,1743.864624 
	C874.283203,1744.244385 660.775513,1744.067017 446.280579,1744.090210 
	C430.158295,1727.865112 415.023682,1711.632202 399.529053,1694.799194 
z"/>
<path fill="#BE4A2B" opacity="1.000000" stroke="none" 
	d="
M1176.835571,1684.005127 
	C1181.209351,1668.143188 1182.430786,1651.802124 1182.080078,1635.162231 
	C1181.634399,1614.008911 1181.818115,1592.842163 1181.699951,1569.819580 
	C1181.762085,1558.638062 1181.934204,1549.318115 1181.935181,1539.998169 
	C1181.951538,1374.218872 1181.943237,1208.439453 1181.966431,1042.660156 
	C1181.967163,1037.674194 1182.251831,1032.688232 1183.315918,1027.685425 
	C1200.911621,1027.525146 1217.595337,1027.381714 1234.279175,1027.238159 
	C1234.279175,1027.238159 1234.200317,1027.570068 1234.134521,1027.726807 
	C1234.037720,1105.543823 1233.990601,1183.204224 1233.979492,1260.864502 
	C1233.964111,1369.522705 1234.139526,1478.181274 1233.837280,1586.838623 
	C1233.776733,1608.575439 1230.883545,1629.994507 1218.535522,1648.970337 
	C1208.290649,1664.714233 1195.323608,1677.097778 1176.835571,1684.005127 
z"/>
<path fill="#D66140" opacity="1.000000" stroke="none" 
	d="
M506.940826,464.007874 
	C445.115173,463.966278 384.226288,463.907806 322.361694,463.808655 
	C333.787140,445.944336 346.188354,428.120728 359.160522,409.926086 
	C362.196259,410.360352 364.612000,411.557465 367.138000,411.873352 
	C370.419983,412.283813 373.789581,412.003448 377.121490,412.003479 
	C628.020569,412.005005 878.919678,412.056763 1129.818604,411.893768 
	C1147.456421,411.882324 1164.213745,414.851471 1181.059082,421.903564 
	C1181.757812,422.073242 1182.007446,422.979309 1182.037720,424.384521 
	C1182.038208,453.708374 1182.058716,481.627197 1181.953247,509.545593 
	C1181.911865,520.503967 1181.588501,531.461304 1181.058838,541.758728 
	C1180.135864,538.845276 1179.559570,536.588989 1178.958008,534.339539 
	C1166.882202,489.195251 1125.986084,462.526215 1085.995361,463.812927 
	C1074.683838,464.176880 1063.353882,463.970520 1051.093628,463.993591 
	C1025.437622,463.982483 1000.720459,464.003479 976.003296,464.024475 
	C819.961426,464.013275 663.919495,464.002136 506.940826,464.007874 
z"/>
<path fill="#E68161" opacity="1.000000" stroke="none" 
	d="
M1181.393555,542.419128 
	C1181.588501,531.461304 1181.911865,520.503967 1181.953247,509.545593 
	C1182.058716,481.627197 1182.038208,453.708374 1182.135498,424.844116 
	C1195.265869,428.613586 1204.343018,438.466461 1212.931274,448.596497 
	C1224.937134,462.757751 1230.863647,479.601654 1232.029541,498.028046 
	C1232.931274,512.279785 1233.864136,526.562683 1233.875977,540.832458 
	C1234.005615,697.729309 1233.956055,854.626404 1233.963867,1011.523376 
	C1233.964111,1016.185852 1234.061646,1020.848389 1234.196533,1026.374512 
	C1217.595337,1027.381714 1200.911621,1027.525146 1183.215088,1027.686890 
	C1182.202515,1027.705200 1182.095215,1027.873413 1182.093750,1026.947021 
	C1182.046631,1021.358459 1181.961426,1016.696350 1181.961182,1012.034180 
	C1181.954224,864.151428 1181.964844,716.268616 1181.931396,568.385864 
	C1181.929443,559.730225 1181.580933,551.074707 1181.393555,542.419128 
z"/>
<path fill="#C03B1B" opacity="1.000000" stroke="none" 
	d="
M7.628948,1524.920898 
	C13.419085,1521.863647 19.634909,1520.238037 25.027393,1517.166870 
	C63.786423,1495.093018 102.415840,1472.790527 141.012268,1450.432495 
	C176.152786,1430.076538 211.159637,1409.489990 246.302124,1389.137329 
	C270.499207,1375.123901 294.878265,1361.424072 319.041595,1347.353394 
	C322.657562,1345.247803 325.536804,1341.877075 330.134277,1338.721436 
	C371.023804,1338.351440 410.535858,1338.351440 450.934601,1338.351440 
	C450.934601,1333.344971 450.933929,1329.421387 450.934692,1325.497681 
	C450.947266,1260.584473 450.949066,1195.671265 451.001892,1130.758057 
	C451.004852,1127.127441 451.429291,1123.496948 452.103699,1119.684570 
	C453.107605,1119.169434 453.591187,1118.750366 454.925903,1118.085938 
	C495.077271,1117.910889 534.303406,1117.849487 573.529419,1117.897461 
	C596.757935,1117.926025 619.709473,1115.823853 642.259033,1109.958130 
	C673.174377,1101.916260 702.895752,1091.026978 728.521545,1071.421875 
	C739.506287,1063.018188 749.338684,1053.108521 760.476074,1043.900146 
	C763.497986,1043.429321 766.043579,1043.466675 767.930298,1042.370361 
	C781.717163,1034.358765 795.317200,1026.026489 809.080505,1017.973694 
	C831.750854,1004.709534 854.473755,991.534546 877.222839,978.405762 
	C901.699158,964.280212 926.262451,950.305237 950.730164,936.164734 
	C973.183228,923.188599 995.531128,910.030518 1017.976624,897.041199 
	C1043.586060,882.220947 1069.189819,867.388611 1094.922607,852.784363 
	C1106.450439,846.241943 1118.286255,840.242554 1130.017578,834.933777 
	C1130.062256,885.002991 1130.047974,934.135193 1130.096069,983.267395 
	C1130.110596,998.202148 1130.297119,1013.136841 1130.337891,1029.001831 
	C1130.168213,1045.953125 1130.065430,1061.974121 1129.218750,1078.040894 
	C1125.367676,1079.210327 1122.016602,1079.908081 1119.191772,1081.524902 
	C1095.515625,1095.076538 1071.935303,1108.795654 1048.327515,1122.466553 
	C1021.551270,1137.972168 994.801697,1153.524048 967.994263,1168.975586 
	C935.421997,1187.750000 902.767395,1206.381836 870.212280,1225.185913 
	C842.844177,1240.993896 815.609314,1257.032715 788.239441,1272.837769 
	C755.682190,1291.638184 723.008423,1310.236694 690.450439,1329.035889 
	C658.470093,1347.501343 626.609741,1366.174561 594.626709,1384.635254 
	C562.065979,1403.429565 529.382141,1422.010620 496.821198,1440.804688 
	C460.227844,1461.926147 423.749481,1483.246826 387.152588,1504.362183 
	C342.197418,1530.300049 297.157166,1556.090454 252.202393,1582.028931 
	C248.561371,1584.129761 244.210953,1585.916016 243.963181,1591.207520 
	C239.308502,1591.354736 234.653946,1591.625610 229.999146,1591.629761 
	C187.019424,1591.667725 144.038788,1591.822632 101.060295,1591.592896 
	C81.084824,1591.485962 62.137268,1587.018311 45.280991,1575.653442 
	C27.000092,1563.327881 14.033112,1546.988159 7.628948,1524.920898 
z"/>
<path fill="#BC3618" opacity="1.000000" stroke="none" 
	d="
M244.888916,1591.378906 
	C244.210953,1585.916016 248.561371,1584.129761 252.202393,1582.028931 
	C297.157166,1556.090454 342.197418,1530.300049 387.152588,1504.362183 
	C423.749481,1483.246826 460.227844,1461.926147 496.821198,1440.804688 
	C529.382141,1422.010620 562.065979,1403.429565 594.626709,1384.635254 
	C626.609741,1366.174561 658.470093,1347.501343 690.450439,1329.035889 
	C723.008423,1310.236694 755.682190,1291.638184 788.239441,1272.837769 
	C815.609314,1257.032715 842.844177,1240.993896 870.212280,1225.185913 
	C902.767395,1206.381836 935.421997,1187.750000 967.994263,1168.975586 
	C994.801697,1153.524048 1021.551270,1137.972168 1048.327515,1122.466553 
	C1071.935303,1108.795654 1095.515625,1095.076538 1119.191772,1081.524902 
	C1122.016602,1079.908081 1125.367676,1079.210327 1129.270020,1078.977661 
	C1130.029663,1154.578003 1129.994263,1229.287354 1129.220459,1304.041626 
	C1125.161133,1305.502319 1121.666382,1306.612793 1118.548950,1308.386353 
	C1104.392822,1316.440186 1090.367798,1324.723877 1076.249878,1332.845459 
	C1043.692627,1351.574463 1011.072388,1370.194580 978.545898,1388.976929 
	C946.596619,1407.426147 914.785706,1426.115479 882.816406,1444.529785 
	C841.053101,1468.585449 799.153198,1492.404053 757.387634,1516.455811 
	C719.943359,1538.018921 682.563477,1559.694824 645.276184,1581.527466 
	C641.742065,1583.596802 639.071533,1587.140747 635.064392,1590.063721 
	C628.468079,1590.153564 622.807373,1590.201782 617.146667,1590.202637 
	C523.907227,1590.216309 430.667786,1590.196167 337.428497,1590.317505 
	C332.923615,1590.323364 328.420319,1591.560547 323.916290,1592.224365 
	C304.145935,1592.045044 284.375641,1591.863159 264.605255,1591.688232 
	C258.341766,1591.632812 252.078171,1591.595825 244.888916,1591.378906 
z"/>
<path fill="#622616" opacity="1.000000" stroke="none" 
	d="
M324.003418,1592.916748 
	C328.420319,1591.560547 332.923615,1590.323364 337.428497,1590.317505 
	C430.667786,1590.196167 523.907227,1590.216309 617.146667,1590.202637 
	C622.807373,1590.201782 628.468079,1590.153564 635.999573,1590.135254 
	C771.192383,1590.151123 904.514526,1590.254639 1037.836304,1590.099243 
	C1070.562134,1590.061035 1096.410400,1575.914795 1114.467163,1548.788696 
	C1120.281860,1540.053345 1123.562134,1529.630981 1128.463379,1520.669189 
	C1128.942261,1536.220459 1131.308105,1551.542358 1128.508911,1565.853882 
	C1121.782349,1600.245361 1100.828491,1623.873291 1067.804810,1636.484253 
	C1064.909790,1637.589844 1062.491211,1639.943726 1059.851318,1641.717773 
	C1050.862305,1641.815430 1041.873413,1641.997803 1032.884399,1641.998291 
	C808.471985,1642.011597 584.059570,1642.005859 358.688904,1641.999023 
	C355.001160,1638.758667 351.952423,1635.737915 349.599243,1632.248047 
	C340.971222,1619.452759 332.574432,1606.501587 324.003418,1592.916748 
z"/>
<path fill="#FFFFFF" opacity="1.000000" stroke="none" 
	d="
M759.694641,1043.883179 
	C749.338684,1053.108521 739.506287,1063.018188 728.521545,1071.421875 
	C702.895752,1091.026978 673.174377,1101.916260 642.259033,1109.958130 
	C619.709473,1115.823853 596.757935,1117.926025 573.529419,1117.897461 
	C534.303406,1117.849487 495.077271,1117.910889 454.330688,1117.983887 
	C452.425964,1118.649902 452.041779,1119.258179 451.657593,1119.866455 
	C451.429291,1123.496948 451.004852,1127.127441 451.001892,1130.758057 
	C450.949066,1195.671265 450.947266,1260.584473 450.934692,1325.497681 
	C450.933929,1329.421387 450.934601,1333.344971 450.934601,1338.351440 
	C410.535858,1338.351440 371.023804,1338.351440 330.555664,1338.225830 
	C329.515137,1289.348267 329.430756,1240.596313 329.153564,1190.924927 
	C329.125916,1188.025879 329.435913,1186.046265 329.435638,1184.066528 
	C329.420929,1080.659546 329.379944,977.252625 329.151428,872.925903 
	C329.125854,868.362610 329.431488,864.719177 329.433807,861.075684 
	C329.462250,816.174805 329.446350,771.273987 329.441986,726.373108 
	C329.441620,722.744751 329.441925,719.116455 329.441925,714.003357 
	C408.116333,714.003357 486.139709,714.003357 566.005920,713.995911 
	C573.827148,713.917053 579.820190,714.089539 585.781189,713.729797 
	C606.049622,712.506775 626.147949,715.036011 645.802612,718.887390 
	C672.799622,724.177368 698.544006,733.962219 722.485229,747.781250 
	C738.797058,757.196594 754.724060,767.233398 765.969971,783.027344 
	C772.457336,792.138367 779.218994,801.054199 785.971191,810.779785 
	C790.122070,821.804443 793.925964,832.206116 798.249573,842.387085 
	C804.930542,858.119019 807.368347,874.675903 807.937256,891.515442 
	C808.572876,910.331299 807.329834,929.035767 804.132507,947.679382 
	C800.051392,971.475891 792.158142,993.834839 780.058655,1014.575378 
	C774.083008,1024.818604 766.532593,1034.143066 759.694641,1043.883179 
M592.840454,813.694702 
	C582.022827,812.676025 571.213928,810.904968 560.385925,810.779053 
	C527.074402,810.391663 493.755432,810.618408 460.439453,810.658020 
	C457.554230,810.661499 454.669434,811.043884 451.333679,811.282532 
	C451.333679,881.792908 451.333679,951.577820 451.333679,1022.261169 
	C455.506500,1022.261169 459.105530,1022.257202 462.704559,1022.261841 
	C494.687378,1022.302917 526.676331,1021.982178 558.650696,1022.525696 
	C577.432983,1022.844910 595.580505,1020.638855 613.193909,1014.050964 
	C635.965271,1005.533997 655.243896,992.827271 666.827881,970.504456 
	C675.195801,954.379028 680.048584,937.386597 679.675659,919.147034 
	C679.533875,912.214478 678.446960,905.306702 678.036865,898.373108 
	C677.105408,882.625000 672.893982,867.839722 664.663879,854.399170 
	C654.002441,836.987976 638.213623,826.060547 618.942200,820.073853 
	C610.943481,817.589111 602.733704,815.783936 592.840454,813.694702 
z"/>
<path fill="#C64321" opacity="1.000000" stroke="none" 
	d="
M785.857178,810.057922 
	C779.218994,801.054199 772.457336,792.138367 765.969971,783.027344 
	C754.724060,767.233398 738.797058,757.196594 722.485229,747.781250 
	C698.544006,733.962219 672.799622,724.177368 645.802612,718.887390 
	C626.147949,715.036011 606.049622,712.506775 585.781189,713.729797 
	C579.820190,714.089539 573.827148,713.917053 566.926880,713.808350 
	C565.981201,709.955505 567.609619,707.433777 570.856567,705.580566 
	C593.390808,692.719055 615.881836,679.781555 638.359192,666.820557 
	C661.988953,653.195129 685.571289,639.487488 709.205200,625.869263 
	C733.703613,611.752808 758.262817,597.741638 782.751160,583.607788 
	C805.511536,570.471313 828.190857,557.194519 850.947571,544.051697 
	C875.431885,529.911255 899.965759,515.856628 924.476074,501.761078 
	C938.895020,493.468903 953.351257,485.240326 967.701843,476.831329 
	C971.980896,474.323975 976.608337,471.775299 975.990417,464.780029 
	C1000.720459,464.003479 1025.437622,463.982483 1051.697754,464.413330 
	C1074.028198,469.147644 1091.556641,478.873871 1106.036377,494.663605 
	C1121.339478,511.351257 1129.497314,530.682373 1129.994019,553.157227 
	C1130.338745,568.763550 1130.008789,584.384827 1129.278564,600.135925 
	C1115.467896,607.457397 1102.246704,614.446411 1089.274536,621.870422 
	C1066.468506,634.922424 1043.842285,648.288086 1021.089966,661.434509 
	C996.322449,675.745422 971.477722,689.922729 946.702393,704.220215 
	C923.942627,717.354553 901.247314,730.600586 878.492737,743.744019 
	C851.129578,759.549500 823.721802,775.278076 796.361389,791.088440 
	C790.468750,794.493530 784.643250,798.005859 787.527283,806.597168 
	C787.818970,807.465942 786.453552,808.891052 785.857178,810.057922 
z"/>
<path fill="#7A2F1B" opacity="1.000000" stroke="none" 
	d="
M1060.799194,1641.800171 
	C1062.491211,1639.943726 1064.909790,1637.589844 1067.804810,1636.484253 
	C1100.828491,1623.873291 1121.782349,1600.245361 1128.508911,1565.853882 
	C1131.308105,1551.542358 1128.942261,1536.220459 1128.460083,1519.818115 
	C1128.674927,1513.019897 1129.937134,1507.762451 1129.945801,1502.503052 
	C1130.055420,1436.334473 1129.983887,1370.165527 1129.958740,1303.996704 
	C1129.994263,1229.287354 1130.029663,1154.578003 1130.013916,1078.931885 
	C1130.065430,1061.974121 1130.168213,1045.953125 1131.232910,1028.976440 
	C1148.828247,1027.971680 1165.461792,1027.922485 1182.095215,1027.873413 
	C1182.095215,1027.873413 1182.202515,1027.705200 1182.303345,1027.703735 
	C1182.251831,1032.688232 1181.967163,1037.674194 1181.966431,1042.660156 
	C1181.943237,1208.439453 1181.951538,1374.218872 1181.935181,1539.998169 
	C1181.934204,1549.318115 1181.762085,1558.638062 1181.592529,1568.874878 
	C1180.173584,1571.933960 1178.424194,1573.924316 1177.559937,1576.244507 
	C1173.726562,1586.537231 1168.873169,1596.211548 1162.198975,1605.006714 
	C1143.682739,1629.407104 1118.603516,1640.682251 1088.574341,1641.935425 
	C1079.648193,1642.307861 1070.690430,1641.921143 1060.799194,1641.800171 
z"/>
<path fill="#8A3E29" opacity="1.000000" stroke="none" 
	d="
M1182.093750,1026.947021 
	C1165.461792,1027.922485 1148.828247,1027.971680 1131.299805,1028.046143 
	C1130.297119,1013.136841 1130.110596,998.202148 1130.096069,983.267395 
	C1130.047974,934.135193 1130.062256,885.002991 1130.049561,833.997192 
	C1130.024414,754.748901 1130.002319,677.374146 1129.980225,599.999390 
	C1130.008789,584.384827 1130.338745,568.763550 1129.994019,553.157227 
	C1129.497314,530.682373 1121.339478,511.351257 1106.036377,494.663605 
	C1091.556641,478.873871 1074.028198,469.147644 1052.636475,464.445435 
	C1063.353882,463.970520 1074.683838,464.176880 1085.995361,463.812927 
	C1125.986084,462.526215 1166.882202,489.195251 1178.958008,534.339539 
	C1179.559570,536.588989 1180.135864,538.845276 1181.058838,541.758728 
	C1181.580933,551.074707 1181.929443,559.730225 1181.931396,568.385864 
	C1181.964844,716.268616 1181.954224,864.151428 1181.961182,1012.034180 
	C1181.961426,1016.696350 1182.046631,1021.358459 1182.093750,1026.947021 
z"/>
<path fill="#C4401E" opacity="1.000000" stroke="none" 
	d="
M1129.278564,600.135925 
	C1130.002319,677.374146 1130.024414,754.748901 1130.014526,833.060181 
	C1118.286255,840.242554 1106.450439,846.241943 1094.922607,852.784363 
	C1069.189819,867.388611 1043.586060,882.220947 1017.976624,897.041199 
	C995.531128,910.030518 973.183228,923.188599 950.730164,936.164734 
	C926.262451,950.305237 901.699158,964.280212 877.222839,978.405762 
	C854.473755,991.534546 831.750854,1004.709534 809.080505,1017.973694 
	C795.317200,1026.026489 781.717163,1034.358765 767.930298,1042.370361 
	C766.043579,1043.466675 763.497986,1043.429321 760.476074,1043.900146 
	C766.532593,1034.143066 774.083008,1024.818604 780.058655,1014.575378 
	C792.158142,993.834839 800.051392,971.475891 804.132507,947.679382 
	C807.329834,929.035767 808.572876,910.331299 807.937256,891.515442 
	C807.368347,874.675903 804.930542,858.119019 798.249573,842.387085 
	C793.925964,832.206116 790.122070,821.804443 785.971191,810.779785 
	C786.453552,808.891052 787.818970,807.465942 787.527283,806.597168 
	C784.643250,798.005859 790.468750,794.493530 796.361389,791.088440 
	C823.721802,775.278076 851.129578,759.549500 878.492737,743.744019 
	C901.247314,730.600586 923.942627,717.354553 946.702393,704.220215 
	C971.477722,689.922729 996.322449,675.745422 1021.089966,661.434509 
	C1043.842285,648.288086 1066.468506,634.922424 1089.274536,621.870422 
	C1102.246704,614.446411 1115.467896,607.457397 1129.278564,600.135925 
z"/>
<path fill="#C84B2C" opacity="1.000000" stroke="none" 
	d="
M452.103699,1119.684570 
	C452.041779,1119.258179 452.425964,1118.649902 453.405365,1118.143677 
	C453.591187,1118.750366 453.107605,1119.169434 452.103699,1119.684570 
z"/>
<path fill="#B83216" opacity="1.000000" stroke="none" 
	d="
M1129.220459,1304.041626 
	C1129.983887,1370.165527 1130.055420,1436.334473 1129.945801,1502.503052 
	C1129.937134,1507.762451 1128.674927,1513.019897 1127.998535,1519.129395 
	C1123.562134,1529.630981 1120.281860,1540.053345 1114.467163,1548.788696 
	C1096.410400,1575.914795 1070.562134,1590.061035 1037.836304,1590.099243 
	C904.514526,1590.254639 771.192383,1590.151123 636.935181,1590.071533 
	C639.071533,1587.140747 641.742065,1583.596802 645.276184,1581.527466 
	C682.563477,1559.694824 719.943359,1538.018921 757.387634,1516.455811 
	C799.153198,1492.404053 841.053101,1468.585449 882.816406,1444.529785 
	C914.785706,1426.115479 946.596619,1407.426147 978.545898,1388.976929 
	C1011.072388,1370.194580 1043.692627,1351.574463 1076.249878,1332.845459 
	C1090.367798,1324.723877 1104.392822,1316.440186 1118.548950,1308.386353 
	C1121.666382,1306.612793 1125.161133,1305.502319 1129.220459,1304.041626 
z"/>
<path fill="#C64220" opacity="1.000000" stroke="none" 
	d="
M593.730164,813.682251 
	C602.733704,815.783936 610.943481,817.589111 618.942200,820.073853 
	C638.213623,826.060547 654.002441,836.987976 664.663879,854.399170 
	C672.893982,867.839722 677.105408,882.625000 678.036865,898.373108 
	C678.446960,905.306702 679.533875,912.214478 679.675659,919.147034 
	C680.048584,937.386597 675.195801,954.379028 666.827881,970.504456 
	C655.243896,992.827271 635.965271,1005.533997 613.193909,1014.050964 
	C595.580505,1020.638855 577.432983,1022.844910 558.650696,1022.525696 
	C526.676331,1021.982178 494.687378,1022.302917 462.704559,1022.261841 
	C459.105530,1022.257202 455.506500,1022.261169 451.333679,1022.261169 
	C451.333679,951.577820 451.333679,881.792908 451.333679,811.282532 
	C454.669434,811.043884 457.554230,810.661499 460.439453,810.658020 
	C493.755432,810.618408 527.074402,810.391663 560.385925,810.779053 
	C571.213928,810.904968 582.022827,812.676025 593.730164,813.682251 
z"/>
</svg>