<svg version="1.1" id="Layer_1" xmlns="http://www.w3.org/2000/svg" xmlns:xlink="http://www.w3.org/1999/xlink" x="0px" y="0px"
	 width="100%" viewBox="0 0 2203 2050" enable-background="new 0 0 2203 2050" xml:space="preserve">
<path fill="#41A5EE" opacity="1.000000" stroke="none" 
	d="
M2206.000000,70.000000 
	C2206.000000,217.383163 2206.000000,364.766327 2205.063232,513.110718 
	C1880.746582,514.082825 1557.366577,514.093750 1233.973389,513.234253 
	C1233.012207,503.778992 1232.948486,494.982880 1230.955444,486.648071 
	C1224.175293,458.294067 1208.061768,436.790222 1182.073975,423.007355 
	C1167.316650,415.180634 1151.530273,411.987701 1134.929443,411.989227 
	C928.654663,412.008331 722.379883,411.992523 515.927124,411.064087 
	C515.722534,304.990631 515.682983,199.838821 515.676147,94.687012 
	C515.673645,56.731720 540.064453,21.483286 575.387085,8.308011 
	C578.801147,7.034585 582.312195,6.015204 585.689026,4.656296 
	C586.084900,4.496996 585.910217,2.919849 586.000000,2.000000 
	C1102.049805,2.000000 1618.099609,2.000000 2134.426270,2.557274 
	C2136.378418,4.034138 2137.954834,5.278016 2139.744385,5.822197 
	C2154.960205,10.449493 2167.976562,18.517174 2179.278564,29.728880 
	C2189.609375,39.977291 2196.952393,51.927563 2202.038818,65.453522 
	C2202.713867,67.249374 2201.674805,71.161095 2206.000000,70.000000 
z"/>
<path fill="#103F91" opacity="1.000000" stroke="none" 
	d="
M592.000000,2052.000000 
	C589.866577,2052.000000 587.733215,2052.000000 584.989441,2051.272461 
	C581.211182,2048.900635 578.159241,2046.963013 574.857361,2045.656860 
	C538.837646,2031.408325 515.728699,1997.581543 515.713196,1958.764160 
	C515.686279,1891.176758 515.698669,1823.589478 515.723755,1756.002075 
	C515.725220,1752.014038 515.985107,1748.026001 517.052612,1744.032715 
	C707.919983,1744.022095 897.859436,1744.022095 1087.798950,1743.980957 
	C1092.779663,1743.979858 1097.877319,1744.128540 1102.722412,1743.187866 
	C1135.693970,1736.785645 1159.731079,1718.691772 1174.145508,1687.457764 
	C1174.967651,1685.991455 1175.524170,1685.018677 1176.811768,1683.983887 
	C1193.057007,1679.013794 1204.105835,1668.211060 1213.951538,1655.983643 
	C1229.280396,1636.946655 1233.210815,1614.235596 1233.892090,1590.757324 
	C1234.381958,1573.870850 1233.972046,1556.958374 1234.902710,1540.023315 
	C1240.837402,1539.970093 1245.832886,1539.934204 1250.828491,1539.934082 
	C1537.912964,1539.931396 1824.997559,1539.929565 2112.082031,1539.934692 
	C2143.387939,1539.935303 2174.694092,1539.977295 2206.000000,1540.000000 
	C2206.000000,1688.049805 2206.000000,1836.099609 2205.277344,1984.878296 
	C2203.113525,1988.118774 2201.377686,1990.508667 2200.279297,1993.162109 
	C2193.948730,2008.451782 2184.830322,2021.905884 2171.473389,2031.589233 
	C2162.742676,2037.918579 2152.525391,2042.192749 2142.996582,2047.429199 
	C2140.982422,2048.536133 2137.207520,2047.800171 2138.000000,2052.000000 
	C1623.950195,2052.000000 1109.900391,2052.000000 594.661865,2051.806641 
	C593.473083,2051.613525 592.597656,2051.357666 592.597656,2051.357666 
	C592.597656,2051.357666 592.000000,2052.000000 592.000000,2052.000000 
z"/>
<path fill="#2B7CD3" opacity="1.000000" stroke="none" 
	d="
M1233.986694,514.104736 
	C1557.366577,514.093750 1880.746582,514.082825 2205.063232,514.035950 
	C2206.000000,684.708435 2206.000000,855.416931 2205.062988,1027.035156 
	C1886.431030,1027.933838 1568.736450,1027.924072 1251.041748,1027.901978 
	C1245.381958,1027.901611 1239.722290,1027.755127 1234.042114,1026.776367 
	C1234.004761,860.471130 1233.989258,695.066589 1233.963623,529.662109 
	C1233.962769,524.671082 1233.856812,519.679993 1233.853027,514.544983 
	C1233.906250,514.401001 1233.986694,514.104736 1233.986694,514.104736 
z"/>
<path fill="#185ABD" opacity="1.000000" stroke="none" 
	d="
M1234.062500,1027.677002 
	C1239.722290,1027.755127 1245.381958,1027.901611 1251.041748,1027.901978 
	C1568.736450,1027.924072 1886.431030,1027.933838 2205.062988,1027.972412 
	C2206.000000,1198.041748 2206.000000,1368.083618 2206.000000,1539.062744 
	C2174.694092,1539.977295 2143.387939,1539.935303 2112.082031,1539.934692 
	C1824.997559,1539.929565 1537.912964,1539.931396 1250.828491,1539.934082 
	C1245.832886,1539.934204 1240.837402,1539.970093 1234.942871,1539.966064 
	C1234.043945,1539.942871 1234.108276,1539.819824 1234.075439,1538.901855 
	C1234.017822,1368.019531 1233.992798,1198.054932 1233.990234,1027.986816 
	C1234.012573,1027.883179 1234.062500,1027.677002 1234.062500,1027.677002 
z"/>
<path fill="#000000" opacity="1.000000" stroke="none" 
	d="
M585.062683,2.000000 
	C585.910217,2.919849 586.084900,4.496996 585.689026,4.656296 
	C582.312195,6.015204 578.801147,7.034585 575.387085,8.308011 
	C540.064453,21.483286 515.673645,56.731720 515.676147,94.687012 
	C515.682983,199.838821 515.722534,304.990631 515.744507,411.986847 
	C515.605286,430.462616 515.470703,447.093994 514.441650,463.674500 
	C373.990021,463.633484 234.432938,463.648865 94.875839,463.647980 
	C70.335754,463.647827 49.604294,472.824432 31.923618,489.512604 
	C19.002670,501.708221 10.474998,516.459351 5.956081,533.599487 
	C5.410859,535.667603 5.651854,538.640442 2.000000,538.000000 
	C2.000000,359.472961 2.000000,180.945938 2.000000,2.000000 
	C196.041580,2.000000 390.083466,2.000000 585.062683,2.000000 
z"/>
<path fill="#000000" opacity="1.000000" stroke="none" 
	d="
M516.124756,1744.037964 
	C515.985107,1748.026001 515.725220,1752.014038 515.723755,1756.002075 
	C515.698669,1823.589478 515.686279,1891.176758 515.713196,1958.764160 
	C515.728699,1997.581543 538.837646,2031.408325 574.857361,2045.656860 
	C578.159241,2046.963013 581.211182,2048.900635 584.189575,2051.272461 
	C390.151886,2052.000000 196.303772,2052.000000 2.000000,2052.000000 
	C2.000000,1873.958496 2.000000,1695.916504 2.750082,1516.873901 
	C4.722026,1518.828247 6.122054,1521.723389 7.136883,1524.747925 
	C13.703737,1544.319824 24.122395,1561.062988 42.191856,1573.079834 
	C60.030460,1586.765747 80.219093,1591.533569 101.534592,1591.594971 
	C174.706299,1591.805908 247.879044,1591.661377 321.051392,1591.625366 
	C324.035248,1591.623901 327.019012,1591.352173 330.925354,1591.376709 
	C368.680817,1591.592529 405.513733,1591.615479 442.346527,1591.691772 
	C466.898743,1591.742554 491.450806,1591.869385 515.962891,1592.901367 
	C515.975220,1609.909424 516.027588,1625.978149 515.986328,1642.977539 
	C515.955017,1660.608887 516.017273,1677.309692 515.971680,1694.942139 
	C515.950684,1711.928345 516.037720,1727.983154 516.124756,1744.037964 
z"/>
<path fill="#2065C2" opacity="1.000000" stroke="none" 
	d="
M2.000000,538.937317 
	C5.651854,538.640442 5.410859,535.667603 5.956081,533.599487 
	C10.474998,516.459351 19.002670,501.708221 31.923618,489.512604 
	C49.604294,472.824432 70.335754,463.647827 94.875839,463.647980 
	C234.432938,463.648865 373.990021,463.633484 515.416992,463.718872 
	C571.530212,463.893036 625.773560,463.972015 680.368652,464.736176 
	C684.444458,466.280609 688.163025,467.856079 691.893433,467.884705 
	C719.522400,468.096466 747.153870,467.956329 774.784058,468.058868 
	C778.127014,468.071259 782.069824,466.847137 785.224243,471.519409 
	C782.739868,473.415802 780.600403,475.338776 778.191467,476.825195 
	C773.666199,479.617554 768.976379,482.142334 764.370544,484.805176 
	C735.007690,501.780914 705.652588,518.769958 676.288147,535.742920 
	C650.089355,550.886108 623.885925,566.021118 597.677368,581.147400 
	C564.558105,600.262024 531.421326,619.346313 498.311615,638.477478 
	C471.534668,653.949402 444.808044,669.508484 418.019989,684.961243 
	C387.777496,702.406677 357.570099,719.915710 327.173920,737.090027 
	C318.576874,741.947571 309.372833,745.730713 300.147827,749.253845 
	C297.892548,739.813416 295.936584,731.125732 293.972839,722.403442 
	C254.447296,722.403442 215.641815,722.403442 175.988800,722.403442 
	C179.772583,738.492493 183.487625,753.937317 187.024338,769.422852 
	C190.863907,786.234436 194.537552,803.083862 197.560776,820.066528 
	C193.200516,821.829407 189.393631,823.145264 185.953781,825.105347 
	C167.204742,835.788208 148.537552,846.614929 129.858170,857.419739 
	C93.363091,878.529785 56.940960,899.767456 20.323986,920.663757 
	C14.663800,923.893921 8.129881,925.592957 2.000002,928.000000 
	C2.000000,798.624878 2.000000,669.249756 2.000000,538.937317 
z"/>
<path fill="#1C60BF" opacity="1.000000" stroke="none" 
	d="
M2.000002,928.937317 
	C8.129881,925.592957 14.663800,923.893921 20.323986,920.663757 
	C56.940960,899.767456 93.363091,878.529785 129.858170,857.419739 
	C148.537552,846.614929 167.204742,835.788208 185.953781,825.105347 
	C189.393631,823.145264 193.200516,821.829407 198.017487,820.671387 
	C229.100067,947.547607 259.017059,1073.965454 288.838043,1200.406006 
	C289.720978,1204.149536 289.594910,1208.131104 289.177307,1212.016357 
	C285.046417,1213.265381 281.418823,1214.047485 278.347900,1215.803101 
	C242.003098,1236.583618 205.708801,1257.453003 169.465897,1278.410889 
	C119.993446,1307.018799 70.630943,1335.817383 21.064577,1364.261230 
	C15.181162,1367.637329 9.671329,1372.710815 2.000000,1372.000000 
	C2.000000,1224.624878 2.000000,1077.249756 2.000002,928.937317 
z"/>
<path fill="#1959BB" opacity="1.000000" stroke="none" 
	d="
M2.000000,1372.937256 
	C9.671329,1372.710815 15.181162,1367.637329 21.064577,1364.261230 
	C70.630943,1335.817383 119.993446,1307.018799 169.465897,1278.410889 
	C205.708801,1257.453003 242.003098,1236.583618 278.347900,1215.803101 
	C281.418823,1214.047485 285.046417,1213.265381 289.302277,1212.817505 
	C290.833038,1214.722900 291.770081,1215.767090 292.076294,1216.971680 
	C296.165894,1233.059326 300.237885,1249.152344 304.169342,1265.279175 
	C307.635986,1279.499146 310.887238,1293.771362 314.299957,1308.004639 
	C316.213623,1315.985840 318.261993,1323.934814 320.323944,1332.195923 
	C337.185486,1332.195923 353.147125,1332.141479 369.108276,1332.208618 
	C393.408722,1332.310669 417.708771,1332.496948 441.945496,1333.331543 
	C441.484192,1338.384766 437.986023,1339.823486 434.802185,1341.661255 
	C387.866577,1368.751343 340.945801,1395.867310 294.027649,1422.987793 
	C264.668091,1439.958740 235.338058,1456.980835 205.959641,1473.919067 
	C178.596680,1489.695312 151.166077,1505.354126 123.804375,1521.132446 
	C98.747116,1535.582031 73.686874,1550.028809 48.789963,1564.750732 
	C45.940918,1566.435547 44.134830,1569.884155 41.845177,1572.515015 
	C24.122395,1561.062988 13.703737,1544.319824 7.136883,1524.747925 
	C6.122054,1521.723389 4.722026,1518.828247 2.750082,1515.936523 
	C2.000000,1468.624878 2.000000,1421.249756 2.000000,1372.937256 
z"/>
<path fill="#010304" opacity="1.000000" stroke="none" 
	d="
M2206.000000,69.062683 
	C2201.674805,71.161095 2202.713867,67.249374 2202.038818,65.453522 
	C2196.952393,51.927563 2189.609375,39.977291 2179.278564,29.728880 
	C2167.976562,18.517174 2154.960205,10.449493 2139.744385,5.822197 
	C2137.954834,5.278016 2136.378418,4.034138 2135.351562,2.557274 
	C2159.184326,2.000000 2182.368652,2.000000 2206.000000,2.000000 
	C2206.000000,24.039774 2206.000000,46.082569 2206.000000,69.062683 
z"/>
<path fill="#000103" opacity="1.000000" stroke="none" 
	d="
M2138.937256,2052.000000 
	C2137.207520,2047.800171 2140.982422,2048.536133 2142.996582,2047.429199 
	C2152.525391,2042.192749 2162.742676,2037.918579 2171.473389,2031.589233 
	C2184.830322,2021.905884 2193.948730,2008.451782 2200.279297,1993.162109 
	C2201.377686,1990.508667 2203.113525,1988.118774 2205.277344,1985.803589 
	C2206.000000,2007.855347 2206.000000,2029.710571 2206.000000,2052.000000 
	C2183.959961,2052.000000 2161.917236,2052.000000 2138.937256,2052.000000 
z"/>
<path fill="#000000" opacity="1.000000" stroke="none" 
	d="
M592.500000,2052.000000 
	C592.000000,2052.000000 592.597656,2051.357666 592.597656,2051.357666 
	C592.597656,2051.357666 593.473083,2051.613525 593.736572,2051.806641 
	C594.000000,2052.000000 593.000000,2052.000000 592.500000,2052.000000 
z"/>
<path fill="#3B95D7" opacity="1.000000" stroke="none" 
	d="
M680.016846,464.050964 
	C625.773560,463.972015 571.530212,463.893036 516.311523,463.769714 
	C515.470703,447.093994 515.605286,430.462616 515.922485,412.908478 
	C722.379883,411.992523 928.654663,412.008331 1134.929443,411.989227 
	C1151.530273,411.987701 1167.316650,415.180634 1182.073975,423.007355 
	C1208.061768,436.790222 1224.175293,458.294067 1230.955444,486.648071 
	C1232.948486,494.982880 1233.012207,503.778992 1233.973389,513.234253 
	C1233.986694,514.104736 1233.906250,514.401001 1232.945435,514.379639 
	C1215.733765,514.275024 1199.481689,514.063171 1183.233154,514.220398 
	C1180.108765,514.250671 1176.998291,515.729248 1173.415039,516.216187 
	C1172.046753,515.215881 1171.145020,514.539001 1170.070068,513.183044 
	C1153.244019,482.645691 1127.627441,466.513062 1093.764648,464.077301 
	C1079.913086,463.080963 1065.924683,463.988251 1051.062500,463.978577 
	C995.590698,463.919495 941.054993,463.888519 886.519348,463.908752 
	C817.685181,463.934296 748.851013,464.001648 680.016846,464.050964 
z"/>
<path fill="#0B2E69" opacity="1.000000" stroke="none" 
	d="
M516.079590,1694.010620 
	C516.017273,1677.309692 515.955017,1660.608887 516.916382,1642.966553 
	C541.606384,1642.020020 565.272705,1642.016968 588.939026,1642.009521 
	C745.936646,1641.960327 902.934265,1641.910034 1060.874512,1641.901123 
	C1070.114624,1641.961426 1078.415771,1641.825195 1086.708862,1642.026489 
	C1125.143677,1642.958740 1162.533081,1617.910400 1176.471436,1579.820068 
	C1177.533569,1576.917480 1179.947754,1574.509644 1181.790894,1572.815674 
	C1181.898926,1593.747681 1181.566650,1613.746460 1182.116333,1633.721069 
	C1182.588135,1650.864014 1180.894531,1667.606079 1176.080688,1684.045776 
	C1175.524170,1685.018677 1174.967651,1685.991455 1173.360352,1687.531738 
	C1154.468384,1692.691895 1136.364380,1694.128418 1117.930786,1694.112305 
	C917.313843,1693.936523 716.696655,1694.007080 516.079590,1694.010620 
z"/>
<path fill="#0D3274" opacity="1.000000" stroke="none" 
	d="
M515.971619,1694.942139 
	C716.696655,1694.007080 917.313843,1693.936523 1117.930786,1694.112305 
	C1136.364380,1694.128418 1154.468384,1692.691895 1173.094849,1688.025391 
	C1159.731079,1718.691772 1135.693970,1736.785645 1102.722412,1743.187866 
	C1097.877319,1744.128540 1092.779663,1743.979858 1087.798950,1743.980957 
	C897.859436,1744.022095 707.919983,1744.022095 517.052612,1744.032715 
	C516.037720,1727.983154 515.950684,1711.928345 515.971619,1694.942139 
z"/>
<path fill="#0E3983" opacity="1.000000" stroke="none" 
	d="
M1176.811768,1683.983887 
	C1180.894531,1667.606079 1182.588135,1650.864014 1182.116333,1633.721069 
	C1181.566650,1613.746460 1181.898926,1593.747681 1181.830566,1571.894531 
	C1181.930176,1559.977173 1182.047485,1549.924927 1183.091797,1539.881714 
	C1200.715088,1539.867188 1217.411743,1539.843506 1234.108276,1539.819824 
	C1234.108276,1539.819824 1234.043945,1539.942871 1234.003784,1540.000244 
	C1233.972046,1556.958374 1234.381958,1573.870850 1233.892090,1590.757324 
	C1233.210815,1614.235596 1229.280396,1636.946655 1213.951538,1655.983643 
	C1204.105835,1668.211060 1193.057007,1679.013794 1176.811768,1683.983887 
z"/>
<path fill="#2770BF" opacity="1.000000" stroke="none" 
	d="
M1173.881348,516.539673 
	C1176.998291,515.729248 1180.108765,514.250671 1183.233154,514.220398 
	C1199.481689,514.063171 1215.733765,514.275024 1232.892212,514.523682 
	C1233.856812,519.679993 1233.962769,524.671082 1233.963623,529.662109 
	C1233.989258,695.066589 1234.004761,860.471130 1234.042114,1026.776367 
	C1234.062500,1027.677002 1234.012573,1027.883179 1233.057373,1027.943115 
	C1215.571533,1027.979370 1199.041016,1027.955566 1182.363159,1027.009521 
	C1182.127930,1021.426941 1181.963379,1016.766663 1181.962891,1012.106445 
	C1181.949341,868.547302 1181.876587,724.988098 1182.033569,581.429077 
	C1182.057007,560.052551 1182.460571,538.768555 1174.055420,518.519531 
	C1173.813232,517.936035 1173.931396,517.203003 1173.881348,516.539673 
z"/>
<path fill="#1651AB" opacity="1.000000" stroke="none" 
	d="
M1182.510376,1027.931763 
	C1199.041016,1027.955566 1215.571533,1027.979370 1233.035034,1028.046875 
	C1233.992798,1198.054932 1234.017822,1368.019531 1234.075439,1538.901855 
	C1217.411743,1539.843506 1200.715088,1539.867188 1183.046265,1539.899170 
	C1182.073975,1539.907349 1182.018066,1539.983398 1182.015747,1539.047607 
	C1181.995117,1373.060181 1181.979736,1208.008667 1181.944824,1042.957153 
	C1181.943726,1037.969849 1181.737183,1032.982422 1181.847534,1027.979370 
	C1182.068481,1027.963623 1182.510376,1027.931763 1182.510376,1027.931763 
z"/>
<path fill="#154FB3" opacity="1.000000" stroke="none" 
	d="
M516.002930,1591.962158 
	C491.450806,1591.869385 466.898743,1591.742554 442.346527,1591.691772 
	C405.513733,1591.615479 368.680817,1591.592529 331.118744,1590.763672 
	C333.463379,1587.060425 336.109009,1583.402344 339.676147,1581.332397 
	C384.528107,1555.303467 429.554657,1529.575928 474.452606,1503.625977 
	C519.061951,1477.842651 563.529541,1451.814331 608.144531,1426.041138 
	C657.365356,1397.606812 706.671570,1369.320068 755.984192,1341.045288 
	C759.391724,1339.091553 762.027771,1336.944702 762.931091,1332.514648 
	C780.976440,1332.336182 798.100281,1332.336182 815.134155,1332.336182 
	C816.292969,1327.695923 817.178589,1324.189941 818.043579,1320.678955 
	C822.698181,1301.786743 827.347595,1282.893066 832.673523,1263.843140 
	C838.932373,1260.111938 844.399414,1256.336426 850.123230,1253.001953 
	C865.351318,1244.130127 880.722290,1235.504028 895.978394,1226.679932 
	C927.928589,1208.199463 959.836609,1189.646118 991.771240,1171.138916 
	C1028.596802,1149.797241 1065.305054,1128.247437 1102.356812,1107.305664 
	C1111.196533,1102.309326 1119.118652,1094.988281 1130.024658,1094.930176 
	C1130.047974,1168.576050 1130.005371,1241.286133 1129.225220,1314.047852 
	C1125.711060,1315.139160 1122.728027,1315.818726 1120.190063,1317.274536 
	C1095.945557,1331.181885 1071.776489,1345.220825 1047.585693,1359.221680 
	C1018.499146,1376.055908 989.415771,1392.895630 960.324585,1409.721802 
	C938.432922,1422.383911 916.549438,1435.060303 894.629456,1447.673218 
	C865.500427,1464.434326 836.323730,1481.112549 807.196594,1497.876953 
	C778.934387,1514.143433 750.699219,1530.457031 722.470642,1546.782104 
	C701.731018,1558.776245 680.966797,1570.730225 660.366516,1582.959839 
	C657.767151,1584.503296 656.099426,1587.615967 653.066895,1590.101196 
	C610.627563,1590.248047 569.121155,1590.252686 527.615356,1590.412354 
	C523.742615,1590.427246 519.873657,1591.422241 516.002930,1591.962158 
z"/>
<path fill="#1754B7" opacity="1.000000" stroke="none" 
	d="
M762.009583,1332.693237 
	C762.027771,1336.944702 759.391724,1339.091553 755.984192,1341.045288 
	C706.671570,1369.320068 657.365356,1397.606812 608.144531,1426.041138 
	C563.529541,1451.814331 519.061951,1477.842651 474.452606,1503.625977 
	C429.554657,1529.575928 384.528107,1555.303467 339.676147,1581.332397 
	C336.109009,1583.402344 333.463379,1587.060425 330.196167,1590.593384 
	C327.019012,1591.352173 324.035248,1591.623901 321.051392,1591.625366 
	C247.879044,1591.661377 174.706299,1591.805908 101.534592,1591.594971 
	C80.219093,1591.533569 60.030460,1586.765747 42.191841,1573.079834 
	C44.134830,1569.884155 45.940918,1566.435547 48.789963,1564.750732 
	C73.686874,1550.028809 98.747116,1535.582031 123.804375,1521.132446 
	C151.166077,1505.354126 178.596680,1489.695312 205.959641,1473.919067 
	C235.338058,1456.980835 264.668091,1439.958740 294.027649,1422.987793 
	C340.945801,1395.867310 387.866577,1368.751343 434.802185,1341.661255 
	C437.986023,1339.823486 441.484192,1338.384766 442.812408,1333.153320 
	C448.442780,1332.290894 453.142761,1332.290894 457.690308,1332.290894 
	C458.882233,1328.819092 459.706787,1326.417236 461.264587,1323.999146 
	C465.051849,1322.847290 468.332977,1322.109009 471.123840,1320.513306 
	C493.005219,1308.003052 514.779968,1295.306519 536.612000,1282.709595 
	C569.358459,1263.815186 602.078003,1244.873047 634.934326,1226.171387 
	C639.731689,1223.440796 645.221130,1221.926025 651.076782,1220.145752 
	C652.401733,1221.956543 653.265442,1223.415649 653.645691,1224.991577 
	C660.484802,1253.334351 667.245972,1281.696045 674.072266,1310.041870 
	C675.835022,1317.362061 677.762878,1324.642334 679.691956,1332.244507 
	C684.465027,1332.244507 688.425110,1332.223755 692.384888,1332.248047 
	C715.593140,1332.390747 738.801331,1332.543701 762.009583,1332.693237 
z"/>
<path fill="#071F45" opacity="1.000000" stroke="none" 
	d="
M515.962891,1592.901367 
	C519.873657,1591.422241 523.742615,1590.427246 527.615356,1590.412354 
	C569.121155,1590.252686 610.627563,1590.248047 653.998962,1590.212769 
	C784.156372,1590.221313 912.448608,1590.232544 1040.740845,1590.156250 
	C1045.370728,1590.153442 1050.097168,1589.735474 1054.614380,1588.754395 
	C1092.709229,1580.480713 1116.187012,1556.422974 1128.571289,1520.809326 
	C1129.323120,1527.644531 1129.689575,1533.787598 1130.045776,1540.862061 
	C1130.025513,1544.792236 1129.954590,1547.791870 1130.015625,1550.788940 
	C1130.373169,1568.345459 1125.093994,1584.128296 1115.578979,1598.777588 
	C1103.690186,1617.081787 1087.067749,1629.187012 1067.104492,1637.259155 
	C1064.516602,1638.305542 1062.313232,1640.303101 1059.931885,1641.860107 
	C902.934265,1641.910034 745.936646,1641.960327 588.939026,1642.009521 
	C565.272705,1642.016968 541.606384,1642.020020 517.010010,1642.036133 
	C516.027588,1625.978149 515.975220,1609.909424 515.962891,1592.901367 
z"/>
<path fill="#FEFEFF" opacity="1.000000" stroke="none" 
	d="
M762.931091,1332.514648 
	C738.801331,1332.543701 715.593140,1332.390747 692.384888,1332.248047 
	C688.425110,1332.223755 684.465027,1332.244507 679.691956,1332.244507 
	C677.762878,1324.642334 675.835022,1317.362061 674.072266,1310.041870 
	C667.245972,1281.696045 660.484802,1253.334351 653.645691,1224.991577 
	C653.265442,1223.415649 652.401733,1221.956543 650.976196,1219.308960 
	C646.547913,1202.083130 643.032104,1185.961548 639.228455,1169.908203 
	C635.711060,1155.062622 631.700134,1140.333374 628.245117,1125.474121 
	C624.422791,1109.035400 620.985107,1092.507446 617.401001,1075.250610 
	C599.703918,997.651489 578.079712,921.714050 565.049072,843.746399 
	C564.097717,845.120178 563.827576,846.394165 563.615479,847.677734 
	C560.032288,869.358093 557.315247,891.223755 552.712402,912.685120 
	C540.565735,969.319397 527.564880,1025.770142 514.985352,1082.311890 
	C511.159027,1099.510376 507.596802,1116.767578 503.493835,1134.636963 
	C494.058533,1174.125122 484.902466,1212.942261 476.079193,1251.834839 
	C470.634338,1275.835571 465.696686,1299.951416 460.531311,1324.015503 
	C459.706787,1326.417236 458.882233,1328.819092 457.690308,1332.290894 
	C453.142761,1332.290894 448.442780,1332.290894 442.875916,1332.469238 
	C417.708771,1332.496948 393.408722,1332.310669 369.108276,1332.208618 
	C353.147125,1332.141479 337.185486,1332.195923 320.323944,1332.195923 
	C318.261993,1323.934814 316.213623,1315.985840 314.299957,1308.004639 
	C310.887238,1293.771362 307.635986,1279.499146 304.169342,1265.279175 
	C300.237885,1249.152344 296.165894,1233.059326 292.076294,1216.971680 
	C291.770081,1215.767090 290.833038,1214.722900 290.064209,1212.802979 
	C289.594910,1208.131104 289.720978,1204.149536 288.838043,1200.406006 
	C259.017059,1073.965454 229.100067,947.547607 198.740265,820.521606 
	C194.537552,803.083862 190.863907,786.234436 187.024338,769.422852 
	C183.487625,753.937317 179.772583,738.492493 175.988800,722.403442 
	C215.641815,722.403442 254.447296,722.403442 293.972839,722.403442 
	C295.936584,731.125732 297.892548,739.813416 300.093750,750.038940 
	C301.561676,757.439209 302.785736,763.301331 304.006866,769.164185 
	C326.329010,876.337219 348.767853,983.486206 370.900452,1090.698364 
	C377.423431,1122.296265 383.319794,1154.029907 389.004486,1185.790649 
	C391.004639,1196.965820 391.513458,1208.407837 392.703217,1219.728027 
	C394.626038,1217.705444 395.255066,1215.610107 395.624268,1213.469971 
	C399.413177,1191.506714 402.114105,1169.296387 407.088287,1147.606689 
	C439.069611,1008.154724 471.542816,868.815552 503.887238,729.446899 
	C504.461884,726.970764 505.442596,724.588989 506.068970,722.668579 
	C549.089355,722.668579 591.228638,722.668579 633.460388,722.668579 
	C639.076843,745.638306 644.491516,767.943726 649.989136,790.228760 
	C658.195740,823.494690 666.460938,856.746094 674.706177,890.767578 
	C689.629211,952.556213 704.733704,1013.536133 719.397644,1074.621948 
	C728.713501,1113.429199 739.662292,1151.894531 744.981079,1191.581421 
	C746.168152,1200.438965 747.352600,1209.296753 748.538269,1218.154419 
	C750.642944,1213.218262 751.263794,1208.322021 751.864929,1203.423218 
	C752.918945,1194.833984 753.539062,1186.166504 755.082153,1177.666504 
	C761.263367,1143.617554 767.989563,1109.666382 774.023193,1075.592163 
	C781.323669,1034.363159 791.544312,993.691650 796.557983,952.004150 
	C798.463196,936.162720 803.927795,920.781555 807.046936,905.047302 
	C813.449219,872.752258 819.363220,840.360413 825.768616,807.247314 
	C831.558594,778.483032 837.058228,750.479797 842.776978,721.361145 
	C863.625122,721.361145 883.886841,721.361145 905.043579,721.536743 
	C923.190430,721.712280 940.442322,721.712280 957.844971,721.712280 
	C957.844971,723.781128 958.036011,724.811584 957.817383,725.746155 
	C948.214539,766.790283 938.536560,807.816895 928.952209,848.865356 
	C920.181946,886.427551 911.508484,924.012329 902.490723,962.253784 
	C882.773376,1045.457275 863.323242,1127.986084 843.969299,1210.537476 
	C839.801025,1228.316528 835.979858,1246.177002 831.998779,1264.000000 
	C827.347595,1282.893066 822.698181,1301.786743 818.043579,1320.678955 
	C817.178589,1324.189941 816.292969,1327.695923 815.134155,1332.336182 
	C798.100281,1332.336182 780.976440,1332.336182 762.931091,1332.514648 
z"/>
<path fill="#1D61C0" opacity="1.000000" stroke="none" 
	d="
M674.701111,890.003662 
	C666.460938,856.746094 658.195740,823.494690 649.989136,790.228760 
	C644.491516,767.943726 639.076843,745.638306 633.460388,722.668579 
	C591.228638,722.668579 549.089355,722.668579 506.068970,722.668579 
	C505.442596,724.588989 504.461884,726.970764 503.887238,729.446899 
	C471.542816,868.815552 439.069611,1008.154724 407.088287,1147.606689 
	C402.114105,1169.296387 399.413177,1191.506714 395.624268,1213.469971 
	C395.255066,1215.610107 394.626038,1217.705444 392.703217,1219.728027 
	C391.513458,1208.407837 391.004639,1196.965820 389.004486,1185.790649 
	C383.319794,1154.029907 377.423431,1122.296265 370.900452,1090.698364 
	C348.767853,983.486206 326.329010,876.337219 304.006866,769.164185 
	C302.785736,763.301331 301.561676,757.439209 300.393066,750.791626 
	C309.372833,745.730713 318.576874,741.947571 327.173920,737.090027 
	C357.570099,719.915710 387.777496,702.406677 418.019989,684.961243 
	C444.808044,669.508484 471.534668,653.949402 498.311615,638.477478 
	C531.421326,619.346313 564.558105,600.262024 597.677368,581.147400 
	C623.885925,566.021118 650.089355,550.886108 676.288147,535.742920 
	C705.652588,518.769958 735.007690,501.780914 764.370544,484.805176 
	C768.976379,482.142334 773.666199,479.617554 778.191467,476.825195 
	C780.600403,475.338776 782.739868,473.415802 785.224243,471.519409 
	C782.069824,466.847137 778.127014,468.071259 774.784058,468.058868 
	C747.153870,467.956329 719.522400,468.096466 691.893433,467.884705 
	C688.163025,467.856079 684.444458,466.280609 680.368652,464.736145 
	C748.851013,464.001648 817.685181,463.934296 886.519348,463.908752 
	C941.054993,463.888519 995.590698,463.919495 1051.677490,464.384460 
	C1074.524658,469.480438 1092.992310,479.130920 1107.072510,496.069458 
	C1112.337158,502.402832 1116.822021,509.384369 1121.849121,516.805908 
	C1124.067871,524.184265 1127.341797,530.726868 1127.887329,537.489502 
	C1129.240967,554.271545 1129.348755,571.153992 1129.216064,588.048828 
	C1125.372803,589.219788 1122.025757,589.910767 1119.206055,591.523438 
	C1095.575317,605.038513 1072.045654,618.730286 1048.476929,632.354004 
	C1025.194824,645.812073 1001.914307,659.273010 978.611633,672.695496 
	C955.884583,685.786377 933.138916,698.845215 910.379639,711.880127 
	C906.651917,714.014954 904.240479,716.895386 904.148560,721.361145 
	C883.886841,721.361145 863.625122,721.361145 842.776978,721.361145 
	C837.058228,750.479797 831.558594,778.483032 825.054810,807.310364 
	C820.653076,809.446594 817.041748,810.376709 813.894958,812.137207 
	C800.533264,819.612366 787.300171,827.317932 774.037048,834.968750 
	C745.491882,851.435059 716.997925,867.990906 688.374023,884.319031 
	C684.119812,886.745850 679.273499,888.134705 674.701111,890.003662 
z"/>
<path fill="#19487B" opacity="1.000000" stroke="none" 
	d="
M1129.956909,587.996155 
	C1129.348755,571.153992 1129.240967,554.271545 1127.887329,537.489502 
	C1127.341797,530.726868 1124.067871,524.184265 1122.596191,516.379944 
	C1126.711304,514.823669 1130.261353,514.142883 1133.821289,514.086182 
	C1145.960083,513.892944 1158.102295,513.919495 1170.243286,513.862183 
	C1171.145020,514.539001 1172.046753,515.215881 1173.414917,516.216187 
	C1173.931396,517.203003 1173.813232,517.936035 1174.055420,518.519531 
	C1182.460571,538.768555 1182.057007,560.052551 1182.033569,581.429077 
	C1181.876587,724.988098 1181.949341,868.547302 1181.962891,1012.106445 
	C1181.963379,1016.766663 1182.127930,1021.426941 1182.363159,1027.009521 
	C1182.510376,1027.931763 1182.068481,1027.963623 1180.947510,1027.975098 
	C1163.379395,1028.025879 1146.932251,1028.065430 1130.371582,1027.164062 
	C1130.204224,1020.580261 1130.108276,1014.937378 1130.102783,1009.294312 
	C1130.046265,950.861877 1130.004150,892.429382 1130.000610,833.060547 
	C1130.067261,807.212891 1130.123535,782.301514 1130.109375,757.390198 
	C1130.077026,700.925537 1130.009888,644.460815 1129.956909,587.996155 
z"/>
<path fill="#265F8B" opacity="1.000000" stroke="none" 
	d="
M1170.070068,513.183044 
	C1158.102295,513.919495 1145.960083,513.892944 1133.821289,514.086182 
	C1130.261353,514.142883 1126.711304,514.823669 1122.409668,515.644409 
	C1116.822021,509.384369 1112.337158,502.402832 1107.072510,496.069458 
	C1092.992310,479.130920 1074.524658,469.480438 1052.613525,464.435364 
	C1065.924683,463.988251 1079.913086,463.080963 1093.764648,464.077301 
	C1127.627441,466.513062 1153.244019,482.645691 1170.070068,513.183044 
z"/>
<path fill="#092554" opacity="1.000000" stroke="none" 
	d="
M1060.874512,1641.901123 
	C1062.313232,1640.303101 1064.516602,1638.305542 1067.104492,1637.259155 
	C1087.067749,1629.187012 1103.690186,1617.081787 1115.578979,1598.777588 
	C1125.093994,1584.128296 1130.373169,1568.345459 1130.015625,1550.788940 
	C1129.954590,1547.791870 1130.025513,1544.792236 1130.976807,1540.873535 
	C1148.618164,1539.963257 1165.318115,1539.973267 1182.018066,1539.983398 
	C1182.018066,1539.983398 1182.073975,1539.907349 1182.119385,1539.889893 
	C1182.047485,1549.924927 1181.930176,1559.977173 1181.773071,1570.950684 
	C1179.947754,1574.509644 1177.533569,1576.917480 1176.471436,1579.820068 
	C1162.533081,1617.910400 1125.143677,1642.958740 1086.708862,1642.026489 
	C1078.415771,1641.825195 1070.114624,1641.961426 1060.874512,1641.901123 
z"/>
<path fill="#0E346D" opacity="1.000000" stroke="none" 
	d="
M1182.015747,1539.047607 
	C1165.318115,1539.973267 1148.618164,1539.963257 1130.987061,1539.941895 
	C1129.689575,1533.787598 1129.323120,1527.644531 1128.515259,1519.947998 
	C1128.728027,1513.129028 1129.942139,1507.864624 1129.951172,1502.598267 
	C1130.058716,1439.731079 1129.987305,1376.863647 1129.962769,1313.996216 
	C1130.005371,1241.286133 1130.047974,1168.576050 1130.079834,1093.994629 
	C1130.207764,1070.783691 1130.346436,1049.444336 1130.485107,1028.104858 
	C1146.932251,1028.065430 1163.379395,1028.025879 1180.726562,1027.990723 
	C1181.737183,1032.982422 1181.943726,1037.969849 1181.944824,1042.957153 
	C1181.979736,1208.008667 1181.995117,1373.060181 1182.015747,1539.047607 
z"/>
<path fill="#1756B8" opacity="1.000000" stroke="none" 
	d="
M1130.371582,1027.164062 
	C1130.346436,1049.444336 1130.207764,1070.783691 1130.013916,1093.058716 
	C1119.118652,1094.988281 1111.196533,1102.309326 1102.356812,1107.305664 
	C1065.305054,1128.247437 1028.596802,1149.797241 991.771240,1171.138916 
	C959.836609,1189.646118 927.928589,1208.199463 895.978394,1226.679932 
	C880.722290,1235.504028 865.351318,1244.130127 850.123230,1253.001953 
	C844.399414,1256.336426 838.932373,1260.111938 832.673584,1263.843140 
	C835.979858,1246.177002 839.801025,1228.316528 843.969299,1210.537476 
	C863.323242,1127.986084 882.773376,1045.457275 903.260376,962.221985 
	C906.456238,960.631409 908.701782,959.950562 910.687256,958.815002 
	C939.559326,942.301147 968.430725,925.785522 997.233704,909.151611 
	C1033.811157,888.027954 1070.284668,866.724182 1106.902954,845.671814 
	C1114.360474,841.384460 1122.261475,837.868469 1129.958130,833.996948 
	C1130.004150,892.429382 1130.046265,950.861877 1130.102783,1009.294312 
	C1130.108276,1014.937378 1130.204224,1020.580261 1130.371582,1027.164062 
z"/>
<path fill="#124AAF" opacity="1.000000" stroke="none" 
	d="
M1129.225220,1314.047852 
	C1129.987305,1376.863647 1130.058716,1439.731079 1129.951172,1502.598267 
	C1129.942139,1507.864624 1128.728027,1513.129028 1128.129761,1519.255615 
	C1116.187012,1556.422974 1092.709229,1580.480713 1054.614380,1588.754395 
	C1050.097168,1589.735474 1045.370728,1590.153442 1040.740845,1590.156250 
	C912.448608,1590.232544 784.156372,1590.221313 654.932068,1590.113037 
	C656.099426,1587.615967 657.767151,1584.503296 660.366516,1582.959839 
	C680.966797,1570.730225 701.731018,1558.776245 722.470642,1546.782104 
	C750.699219,1530.457031 778.934387,1514.143433 807.196594,1497.876953 
	C836.323730,1481.112549 865.500427,1464.434326 894.629456,1447.673218 
	C916.549438,1435.060303 938.432922,1422.383911 960.324585,1409.721802 
	C989.415771,1392.895630 1018.499146,1376.055908 1047.585693,1359.221680 
	C1071.776489,1345.220825 1095.945557,1331.181885 1120.190063,1317.274536 
	C1122.728027,1315.818726 1125.711060,1315.139160 1129.225220,1314.047852 
z"/>
<path fill="#1959BB" opacity="1.000000" stroke="none" 
	d="
M617.379883,1076.018311 
	C620.985107,1092.507446 624.422791,1109.035400 628.245117,1125.474121 
	C631.700134,1140.333374 635.711060,1155.062622 639.228455,1169.908203 
	C643.032104,1185.961548 646.547913,1202.083130 650.289795,1219.011719 
	C645.221130,1221.926025 639.731689,1223.440796 634.934326,1226.171387 
	C602.078003,1244.873047 569.358459,1263.815186 536.612000,1282.709595 
	C514.779968,1295.306519 493.005219,1308.003052 471.123840,1320.513306 
	C468.332977,1322.109009 465.051849,1322.847290 461.264587,1323.999146 
	C465.696686,1299.951416 470.634338,1275.835571 476.079193,1251.834839 
	C484.902466,1212.942261 494.058533,1174.125122 504.201538,1134.496826 
	C508.647766,1132.191162 512.108765,1130.912598 515.263245,1129.100464 
	C544.994507,1112.020142 574.739685,1094.961548 604.296448,1077.583130 
	C608.763611,1074.956543 612.709534,1074.010254 617.379883,1076.018311 
z"/>
<path fill="#1A5CBD" opacity="1.000000" stroke="none" 
	d="
M1130.000610,833.060547 
	C1122.261475,837.868469 1114.360474,841.384460 1106.902954,845.671814 
	C1070.284668,866.724182 1033.811157,888.027954 997.233704,909.151611 
	C968.430725,925.785522 939.559326,942.301147 910.687256,958.815002 
	C908.701782,959.950562 906.456238,960.631409 903.562012,961.555420 
	C911.508484,924.012329 920.181946,886.427551 928.952209,848.865356 
	C938.536560,807.816895 948.214539,766.790283 957.817383,725.746155 
	C958.036011,724.811584 957.844971,723.781128 957.844971,721.712280 
	C940.442322,721.712280 923.190430,721.712280 905.043579,721.536743 
	C904.240479,716.895386 906.651917,714.014954 910.379639,711.880127 
	C933.138916,698.845215 955.884583,685.786377 978.611633,672.695496 
	C1001.914307,659.273010 1025.194824,645.812073 1048.476929,632.354004 
	C1072.045654,618.730286 1095.575317,605.038513 1119.206055,591.523438 
	C1122.025757,589.910767 1125.372803,589.219788 1129.216064,588.048828 
	C1130.009888,644.460815 1130.077026,700.925537 1130.109375,757.390198 
	C1130.123535,782.301514 1130.067261,807.212891 1130.000610,833.060547 
z"/>
<path fill="#1B5CBC" opacity="1.000000" stroke="none" 
	d="
M674.706177,890.767578 
	C679.273499,888.134705 684.119812,886.745850 688.374023,884.319031 
	C716.997925,867.990906 745.491882,851.435059 774.037048,834.968750 
	C787.300171,827.317932 800.533264,819.612366 813.894958,812.137207 
	C817.041748,810.376709 820.653076,809.446594 824.764526,808.071411 
	C819.363220,840.360413 813.449219,872.752258 807.046936,905.047302 
	C803.927795,920.781555 798.463196,936.162720 796.557983,952.004150 
	C791.544312,993.691650 781.323669,1034.363159 774.023193,1075.592163 
	C767.989563,1109.666382 761.263367,1143.617554 755.082153,1177.666504 
	C753.539062,1186.166504 752.918945,1194.833984 751.864929,1203.423218 
	C751.263794,1208.322021 750.642944,1213.218262 748.538269,1218.154419 
	C747.352600,1209.296753 746.168152,1200.438965 744.981079,1191.581421 
	C739.662292,1151.894531 728.713501,1113.429199 719.397644,1074.621948 
	C704.733704,1013.536133 689.629211,952.556213 674.706177,890.767578 
z"/>
<path fill="#1C5EBE" opacity="1.000000" stroke="none" 
	d="
M617.401001,1075.250610 
	C612.709534,1074.010254 608.763611,1074.956543 604.296448,1077.583130 
	C574.739685,1094.961548 544.994507,1112.020142 515.263245,1129.100464 
	C512.108765,1130.912598 508.647766,1132.191162 504.621277,1133.857666 
	C507.596802,1116.767578 511.159027,1099.510376 514.985352,1082.311890 
	C527.564880,1025.770142 540.565735,969.319397 552.712402,912.685120 
	C557.315247,891.223755 560.032288,869.358093 563.615479,847.677734 
	C563.827576,846.394165 564.097717,845.120178 565.049072,843.746399 
	C578.079712,921.714050 599.703918,997.651489 617.401001,1075.250610 
z"/>
</svg>